  0
SECTION
  2
HEADER
  9
$ACADVER
  1
AC1015
  9
$ACADMAINTVER
 70
     6
  9
$DWGCODEPAGE
  3
ANSI_1252
  9
$INSBASE
 10
0.0
 20
0.0
 30
0.0
  9
$EXTMIN
 10
-0.1
 20
-40.122
 30
0.0
  9
$EXTMAX
 10
165.6
 20
40.122
 30
0.0
  9
$LIMMIN
 10
0.0
 20
0.0
  9
$LIMMAX
 10
420.0
 20
297.0
  9
$ORTHOMODE
 70
     0
  9
$REGENMODE
 70
     1
  9
$FILLMODE
 70
     1
  9
$QTEXTMODE
 70
     0
  9
$MIRRTEXT
 70
     1
  9
$LTSCALE
 40
1.0
  9
$ATTMODE
 70
     1
  9
$TEXTSIZE
 40
3.175
  9
$TRACEWID
 40
1.0
  9
$TEXTSTYLE
  7
Standard
  9
$CLAYER
  8
0
  9
$CELTYPE
  6
ByLayer
  9
$CECOLOR
 62
   256
  9
$CELTSCALE
 40
1.0
  9
$DISPSILH
 70
     0
  9
$DIMSCALE
 40
1.0
  9
$DIMASZ
 40
3.302
  9
$DIMEXO
 40
0.0
  9
$DIMDLI
 40
3.75
  9
$DIMRND
 40
0.0
  9
$DIMDLE
 40
0.0
  9
$DIMEXE
 40
3.175
  9
$DIMTP
 40
0.0
  9
$DIMTM
 40
0.0
  9
$DIMTXT
 40
3.175
  9
$DIMCEN
 40
2.5
  9
$DIMTSZ
 40
0.0
  9
$DIMTOL
 70
     0
  9
$DIMLIM
 70
     0
  9
$DIMTIH
 70
     1
  9
$DIMTOH
 70
     1
  9
$DIMSE1
 70
     0
  9
$DIMSE2
 70
     0
  9
$DIMTAD
 70
     0
  9
$DIMZIN
 70
     1
  9
$DIMBLK
  1

  9
$DIMASO
 70
     1
  9
$DIMSHO
 70
     1
  9
$DIMPOST
  1

  9
$DIMAPOST
  1

  9
$DIMALT
 70
     0
  9
$DIMALTD
 70
     3
  9
$DIMALTF
 40
0.0393700787
  9
$DIMLFAC
 40
1.0
  9
$DIMTOFL
 70
     1
  9
$DIMTVP
 40
0.0
  9
$DIMTIX
 70
     0
  9
$DIMSOXD
 70
     0
  9
$DIMSAH
 70
     0
  9
$DIMBLK1
  1

  9
$DIMBLK2
  1

  9
$DIMSTYLE
  2
ISO-25
  9
$DIMCLRD
 70
     0
  9
$DIMCLRE
 70
     0
  9
$DIMCLRT
 70
     0
  9
$DIMTFAC
 40
1.0
  9
$DIMGAP
 40
1.524
  9
$DIMJUST
 70
     0
  9
$DIMSD1
 70
     0
  9
$DIMSD2
 70
     0
  9
$DIMTOLJ
 70
     0
  9
$DIMTZIN
 70
     1
  9
$DIMALTZ
 70
     0
  9
$DIMALTTZ
 70
     0
  9
$DIMUPT
 70
     0
  9
$DIMDEC
 70
     2
  9
$DIMTDEC
 70
     2
  9
$DIMALTU
 70
     2
  9
$DIMALTTD
 70
     3
  9
$DIMTXSTY
  7
Standard
  9
$DIMAUNIT
 70
     0
  9
$DIMADEC
 70
     2
  9
$DIMALTRND
 40
0.0
  9
$DIMAZIN
 70
     0
  9
$DIMDSEP
 70
    44
  9
$DIMATFIT
 70
     3
  9
$DIMFRAC
 70
     0
  9
$DIMLDRBLK
  1

  9
$DIMLUNIT
 70
     2
  9
$DIMLWD
 70
    -2
  9
$DIMLWE
 70
    -2
  9
$DIMTMOVE
 70
     0
  9
$LUNITS
 70
     2
  9
$LUPREC
 70
     2
  9
$SKETCHINC
 40
1.0
  9
$FILLETRAD
 40
0.0
  9
$AUNITS
 70
     0
  9
$AUPREC
 70
     2
  9
$MENU
  1
.
  9
$ELEVATION
 40
0.0
  9
$PELEVATION
 40
0.0
  9
$THICKNESS
 40
0.0
  9
$LIMCHECK
 70
     0
  9
$CHAMFERA
 40
0.0
  9
$CHAMFERB
 40
0.0
  9
$CHAMFERC
 40
0.0
  9
$CHAMFERD
 40
0.0
  9
$SKPOLY
 70
     0
  9
$TDCREATE
 40
2460589.386256702
  9
$TDUCREATE
 40
2460589.594590035
  9
$TDUPDATE
 40
2460589.386293924
  9
$TDUUPDATE
 40
2460589.594627257
  9
$TDINDWG
 40
0.0000000116
  9
$TDUSRTIMER
 40
0.0000000116
  9
$USRTIMER
 70
     1
  9
$ANGBASE
 50
0.0
  9
$ANGDIR
 70
     0
  9
$PDMODE
 70
     0
  9
$PDSIZE
 40
-1.0
  9
$PLINEWID
 40
0.0
  9
$SPLFRAME
 70
     0
  9
$SPLINETYPE
 70
     6
  9
$SPLINESEGS
 70
     8
  9
$HANDSEED
  5
25A
  9
$SURFTAB1
 70
     6
  9
$SURFTAB2
 70
     6
  9
$SURFTYPE
 70
     6
  9
$SURFU
 70
     6
  9
$SURFV
 70
     6
  9
$UCSBASE
  2

  9
$UCSNAME
  2

  9
$UCSORG
 10
0.0
 20
0.0
 30
0.0
  9
$UCSXDIR
 10
1.0
 20
0.0
 30
0.0
  9
$UCSYDIR
 10
0.0
 20
1.0
 30
0.0
  9
$UCSORTHOREF
  2

  9
$UCSORTHOVIEW
 70
     0
  9
$UCSORGTOP
 10
0.0
 20
0.0
 30
0.0
  9
$UCSORGBOTTOM
 10
0.0
 20
0.0
 30
0.0
  9
$UCSORGLEFT
 10
0.0
 20
0.0
 30
0.0
  9
$UCSORGRIGHT
 10
0.0
 20
0.0
 30
0.0
  9
$UCSORGFRONT
 10
0.0
 20
0.0
 30
0.0
  9
$UCSORGBACK
 10
0.0
 20
0.0
 30
0.0
  9
$PUCSBASE
  2

  9
$PUCSNAME
  2

  9
$PUCSORG
 10
0.0
 20
0.0
 30
0.0
  9
$PUCSXDIR
 10
1.0
 20
0.0
 30
0.0
  9
$PUCSYDIR
 10
0.0
 20
1.0
 30
0.0
  9
$PUCSORTHOREF
  2

  9
$PUCSORTHOVIEW
 70
     0
  9
$PUCSORGTOP
 10
0.0
 20
0.0
 30
0.0
  9
$PUCSORGBOTTOM
 10
0.0
 20
0.0
 30
0.0
  9
$PUCSORGLEFT
 10
0.0
 20
0.0
 30
0.0
  9
$PUCSORGRIGHT
 10
0.0
 20
0.0
 30
0.0
  9
$PUCSORGFRONT
 10
0.0
 20
0.0
 30
0.0
  9
$PUCSORGBACK
 10
0.0
 20
0.0
 30
0.0
  9
$USERI1
 70
     0
  9
$USERI2
 70
     0
  9
$USERI3
 70
     0
  9
$USERI4
 70
     0
  9
$USERI5
 70
     0
  9
$USERR1
 40
0.0
  9
$USERR2
 40
0.0
  9
$USERR3
 40
0.0
  9
$USERR4
 40
0.0
  9
$USERR5
 40
0.0
  9
$WORLDVIEW
 70
     1
  9
$SHADEDGE
 70
     3
  9
$SHADEDIF
 70
    70
  9
$TILEMODE
 70
     1
  9
$MAXACTVP
 70
    64
  9
$PINSBASE
 10
0.0
 20
0.0
 30
0.0
  9
$PLIMCHECK
 70
     0
  9
$PEXTMIN
 10
1.0000000000E+20
 20
1.0000000000E+20
 30
1.0000000000E+20
  9
$PEXTMAX
 10
-1.0000000000E+20
 20
-1.0000000000E+20
 30
-1.0000000000E+20
  9
$PLIMMIN
 10
0.0
 20
0.0
  9
$PLIMMAX
 10
420.0
 20
297.0
  9
$UNITMODE
 70
     0
  9
$VISRETAIN
 70
     1
  9
$PLINEGEN
 70
     0
  9
$PSLTSCALE
 70
     1
  9
$TREEDEPTH
 70
  3020
  9
$CMLSTYLE
  2
Standard
  9
$CMLJUST
 70
     0
  9
$CMLSCALE
 40
20.0
  9
$PROXYGRAPHICS
 70
     1
  9
$MEASUREMENT
 70
     1
  9
$CELWEIGHT
370
    -1
  9
$ENDCAPS
280
     0
  9
$JOINSTYLE
280
     0
  9
$LWDISPLAY
290
     1
  9
$INSUNITS
 70
     4
  9
$HYPERLINKBASE
  1

  9
$STYLESHEET
  1

  9
$XEDIT
290
     1
  9
$CEPSNTYPE
380
     0
  9
$PSTYLEMODE
290
     1
  9
$FINGERPRINTGUID
  2
{1955c0f3-39ca-4281-b44a-66dcdb14f864}
  9
$VERSIONGUID
  2
{FAEB1C32-E019-11D5-929B-00C0DF256EC4}
  9
$EXTNAMES
290
     1
  9
$PSVPSCALE
 40
0.0
  9
$OLESTARTUP
290
     0
  0
ENDSEC
  0
SECTION
  2
CLASSES
  0
CLASS
  1
ACDBDICTIONARYWDFLT
  2
AcDbDictionaryWithDefault
  3
ObjectDBX Classes
 90
        0
280
     0
281
     0
  0
CLASS
  1
VISUALSTYLE
  2
AcDbVisualStyle
  3
ObjectDBX Classes
 90
     4095
280
     0
281
     0
  0
CLASS
  1
MATERIAL
  2
AcDbMaterial
  3
ObjectDBX Classes
 90
     1153
280
     0
281
     0
  0
CLASS
  1
SCALE
  2
AcDbScale
  3
ObjectDBX Classes
 90
     1153
280
     0
281
     0
  0
CLASS
  1
TABLESTYLE
  2
AcDbTableStyle
  3
ObjectDBX Classes
 90
     4095
280
     0
281
     0
  0
CLASS
  1
MLEADERSTYLE
  2
AcDbMLeaderStyle
  3
ACDB_MLEADERSTYLE_CLASS
 90
     4095
280
     0
281
     0
  0
CLASS
  1
SUN
  2
AcDbSun
  3
SCENEOE
 90
     1153
280
     0
281
     0
  0
CLASS
  1
ACDBPLACEHOLDER
  2
AcDbPlaceHolder
  3
ObjectDBX Classes
 90
        0
280
     0
281
     0
  0
CLASS
  1
LAYOUT
  2
AcDbLayout
  3
ObjectDBX Classes
 90
        0
280
     0
281
     0
  0
ENDSEC
  0
SECTION
  2
TABLES
  0
TABLE
  2
VPORT
  5
8
330
0
100
AcDbSymbolTable
 70
     1
  0
VPORT
  5
29
330
8
100
AcDbSymbolTableRecord
100
AcDbViewportTableRecord
  2
*Active
 70
     0
 10
0.0
 20
0.0
 11
1.0
 21
1.0
 12
82.75
 22
0.0
 13
0.0
 23
0.0
 14
10.0
 24
10.0
 15
10.0
 25
10.0
 16
0.0
 26
0.0
 36
1.0
 17
0.0
 27
0.0
 37
0.0
 40
81.84888
 41
2.0649518967
 42
50.0
 43
0.0
 44
0.0
 50
0.0
 51
0.0
 71
     0
 72
   100
 73
     1
 74
     3
 75
     0
 76
     0
 77
     0
 78
     0
281
     0
 65
     1
110
0.0
120
0.0
130
0.0
111
1.0
121
0.0
131
0.0
112
0.0
122
1.0
132
0.0
 79
     0
146
0.0
  0
ENDTAB
  0
TABLE
  2
LTYPE
  5
5
330
0
100
AcDbSymbolTable
 70
     6
  0
LTYPE
  5
14
330
5
100
AcDbSymbolTableRecord
100
AcDbLinetypeTableRecord
  2
ByBlock
 70
     0
  3

 72
    65
 73
     0
 40
0.0
  0
LTYPE
  5
15
330
5
100
AcDbSymbolTableRecord
100
AcDbLinetypeTableRecord
  2
ByLayer
 70
     0
  3

 72
    65
 73
     0
 40
0.0
  0
LTYPE
  5
16
330
5
100
AcDbSymbolTableRecord
100
AcDbLinetypeTableRecord
  2
Continuous
 70
     0
  3
Solid line
 72
    65
 73
     0
 40
0.0
  0
LTYPE
  5
5E
330
5
100
AcDbSymbolTableRecord
100
AcDbLinetypeTableRecord
  2
HIDDEN
 70
     0
  3
Hidden __ __ __ __ __ __ __ __ __ __ __ __ __ __
 72
    65
 73
     2
 40
1.905
 49
1.27
 74
     0
 49
-0.635
 74
     0
  0
LTYPE
  5
5F
330
5
100
AcDbSymbolTableRecord
100
AcDbLinetypeTableRecord
  2
PHANTOM
 70
     0
  3
Phantom ______  __  __  ______  __  __  ______
 72
    65
 73
     6
 40
12.7
 49
6.35
 74
     0
 49
-1.27
 74
     0
 49
1.27
 74
     0
 49
-1.27
 74
     0
 49
1.27
 74
     0
 49
-1.27
 74
     0
  0
LTYPE
  5
60
330
5
100
AcDbSymbolTableRecord
100
AcDbLinetypeTableRecord
  2
CENTER
 70
     0
  3
Center ____ _ ____ _ ____ _ ____ _ ____ _ ____
 72
    65
 73
     4
 40
10.16
 49
6.35
 74
     0
 49
-1.27
 74
     0
 49
1.27
 74
     0
 49
-1.27
 74
     0
  0
LTYPE
  5
61
330
5
100
AcDbSymbolTableRecord
100
AcDbLinetypeTableRecord
  2
CENTERX2
 70
     0
  3
Center (2x) ________  __  ________  __  _____
 72
    65
 73
     4
 40
20.32
 49
12.7
 74
     0
 49
-2.54
 74
     0
 49
2.54
 74
     0
 49
-2.54
 74
     0
  0
LTYPE
  5
62
330
5
100
AcDbSymbolTableRecord
100
AcDbLinetypeTableRecord
  2
DOT2
 70
     0
  3
Dot (.5x) ........................................
 72
    65
 73
     2
 40
0.635
 49
0.0
 74
     0
 49
-0.635
 74
     0
  0
ENDTAB
  0
TABLE
  2
LAYER
  5
2
330
0
100
AcDbSymbolTable
 70
     1
  0
LAYER
  5
10
330
2
100
AcDbSymbolTableRecord
100
AcDbLayerTableRecord
  2
0
 70
     0
 62
     7
  6
Continuous
370
    -3
390
F
  0
ENDTAB
  0
TABLE
  2
STYLE
  5
3
330
0
100
AcDbSymbolTable
 70
     2
  0
STYLE
  5
11
330
3
100
AcDbSymbolTableRecord
100
AcDbTextStyleTableRecord
  2
Standard
 70
     0
 40
0.0
 41
1.0
 50
0.0
 71
     0
 42
3.175
  3
txt
  4

  0
STYLE
  5
256
330
3
100
AcDbSymbolTableRecord
100
AcDbTextStyleTableRecord
  2
SLDTEXTSTYLE0
 70
     0
 40
0.0
 41
0.7
 50
0.0
 71
     0
 42
3.175
  3
TXT
  4

  0
ENDTAB
  0
TABLE
  2
VIEW
  5
6
330
0
100
AcDbSymbolTable
 70
     0
  0
ENDTAB
  0
TABLE
  2
UCS
  5
7
330
0
100
AcDbSymbolTable
 70
     0
  0
ENDTAB
  0
TABLE
  2
APPID
  5
9
330
0
100
AcDbSymbolTable
 70
     1
  0
APPID
  5
12
330
9
100
AcDbSymbolTableRecord
100
AcDbRegAppTableRecord
  2
ACAD
 70
     0
  0
ENDTAB
  0
TABLE
  2
DIMSTYLE
  5
A
330
0
100
AcDbSymbolTable
 70
     1
100
AcDbDimStyleTable
  0
DIMSTYLE
105
27
330
A
100
AcDbSymbolTableRecord
100
AcDbDimStyleTableRecord
  2
ISO-25
 70
     0
 41
2.5
 42
0.625
 43
3.75
 44
1.25
 73
     0
 74
     0
 77
     1
 78
     8
140
2.5
141
2.5
143
0.0393700787
147
0.625
171
     3
172
     1
178
     0
271
     2
272
     2
274
     3
278
    44
283
     0
284
     8
340
11
  0
ENDTAB
  0
TABLE
  2
BLOCK_RECORD
  5
1
330
0
100
AcDbSymbolTable
 70
     1
  0
BLOCK_RECORD
  5
1F
330
1
100
AcDbSymbolTableRecord
100
AcDbBlockTableRecord
  2
*Model_Space
340
22
  0
BLOCK_RECORD
  5
1B
330
1
100
AcDbSymbolTableRecord
100
AcDbBlockTableRecord
  2
*Paper_Space
340
1E
  0
BLOCK_RECORD
  5
23
330
1
100
AcDbSymbolTableRecord
100
AcDbBlockTableRecord
  2
*Paper_Space0
340
26
  0
ENDTAB
  0
ENDSEC
  0
SECTION
  2
BLOCKS
  0
BLOCK
  5
20
330
1F
100
AcDbEntity
  8
0
100
AcDbBlockBegin
  2
*Model_Space
 70
     0
 10
0.0
 20
0.0
 30
0.0
  3
*Model_Space
  1

  0
ENDBLK
  5
21
330
1F
100
AcDbEntity
  8
0
100
AcDbBlockEnd
  0
BLOCK
  5
1C
330
1B
100
AcDbEntity
 67
     1
  8
0
100
AcDbBlockBegin
  2
*Paper_Space
 70
     0
 10
0.0
 20
0.0
 30
0.0
  3
*Paper_Space
  1

  0
ENDBLK
  5
1D
330
1B
100
AcDbEntity
 67
     1
  8
0
100
AcDbBlockEnd
  0
BLOCK
  5
24
330
23
100
AcDbEntity
  8
0
100
AcDbBlockBegin
  2
*Paper_Space0
 70
     0
 10
0.0
 20
0.0
 30
0.0
  3
*Paper_Space0
  1

  0
ENDBLK
  5
25
330
23
100
AcDbEntity
  8
0
100
AcDbBlockEnd
  0
ENDSEC
  0
SECTION
  2
ENTITIES
  0
SPLINE
  5
7C
330
1F
100
AcDbEntity
  8
0
  6
Continuous
 62
     7
370
    25
100
AcDbSpline
210
0.0
220
0.0
230
1.0
 70
     8
 71
     3
 72
    23
 73
    19
 74
     0
 42
0.00000001
 43
0.00000001
 40
0.0
 40
0.0
 40
0.0
 40
0.0
 40
0.0580459117014041
 40
0.1142085110866311
 40
0.1688853714773059
 40
0.2226179977481063
 40
0.2756409872072603
 40
0.3287128123382391
 40
0.3816446095098474
 40
0.4359372358193015
 40
0.4912456014021859
 40
0.5489721916418727
 40
0.6103938667198644
 40
0.6763535312024374
 40
0.7474188598102834
 40
0.824872993378645
 40
0.90902937213557
 40
1.0
 40
1.0
 40
1.0
 40
1.0
 10
140.2725562373349
 20
17.74268043067825
 30
0.0
 10
140.3311006502363
 20
17.74143274340683
 30
0.0
 10
140.4462899897424
 20
17.73897785035073
 30
0.0
 10
140.6155197573264
 20
17.71789807542719
 30
0.0
 10
140.7783256598036
 20
17.68465070727466
 30
0.0
 10
140.933593659511
 20
17.63505776981226
 30
0.0
 10
141.0831387407246
 20
17.57442899933627
 30
0.0
 10
141.2244397154477
 20
17.49802300894689
 30
0.0
 10
141.3594118522566
 20
17.40880137641772
 30
0.0
 10
141.4877011050965
 20
17.30644025792182
 30
0.0
 10
141.6066532769931
 20
17.18591807039249
 30
0.0
 10
141.7077168971051
 20
17.0409736909654
 30
0.0
 10
141.7920062230764
 20
16.87399879483182
 30
0.0
 10
141.8626705105877
 20
16.68632610639374
 30
0.0
 10
141.9142087688934
 20
16.47596373468472
 30
0.0
 10
141.9543838537274
 20
16.24464729277338
 30
0.0
 10
141.9759689273791
 20
15.99057374842622
 30
0.0
 10
141.9789838066276
 20
15.81400819815928
 30
0.0
 10
141.9805499012205
 20
15.72229031137017
 30
0.0
  0
SPLINE
  5
7D
330
1F
100
AcDbEntity
  8
0
  6
Continuous
 62
     7
370
    25
100
AcDbSpline
210
0.0
220
0.0
230
1.0
 70
     8
 71
     3
 72
    19
 73
    15
 74
     0
 42
0.00000001
 43
0.00000001
 40
0.0
 40
0.0
 40
0.0
 40
0.0
 40
0.0892469970140232
 40
0.173143666524389
 40
0.2526174257439113
 40
0.3289195329662366
 40
0.4046580426516513
 40
0.4814727296742681
 40
0.561847982284804
 40
0.6456111230529139
 40
0.7322777404363493
 40
0.8191697204653293
 40
0.9080700473560734
 40
1.0
 40
1.0
 40
1.0
 40
1.0
 10
138.7015189905004
 20
16.45461098766839
 30
0.0
 10
138.7139144142377
 20
16.51990555943018
 30
0.0
 10
138.7379621602213
 20
16.64658031530123
 30
0.0
 10
138.7988188531247
 20
16.82479945887259
 30
0.0
 10
138.8697477102555
 20
16.98875064001866
 30
0.0
 10
138.9611530816731
 20
17.13532413041323
 30
0.0
 10
139.0678693866714
 20
17.26857649722582
 30
0.0
 10
139.1959448921507
 20
17.3861178883662
 30
0.0
 10
139.3422952058904
 20
17.49032839447658
 30
0.0
 10
139.5068683871964
 20
17.57893394659689
 30
0.0
 10
139.6839448954607
 20
17.65268594850915
 30
0.0
 10
139.8725938010963
 20
17.70434178102799
 30
0.0
 10
140.0695361953915
 20
17.73742752602782
 30
0.0
 10
140.2041312228357
 20
17.74091001395767
 30
0.0
 10
140.2725562373349
 20
17.74268043067825
 30
0.0
  0
SPLINE
  5
7E
330
1F
100
AcDbEntity
  8
0
  6
Continuous
 62
     7
370
    25
100
AcDbSpline
210
0.0
220
0.0
230
1.0
 70
     8
 71
     3
 72
    11
 73
     7
 74
     0
 42
0.00000001
 43
0.00000001
 40
0.0
 40
0.0
 40
0.0
 40
0.0
 40
0.30716263010994
 40
0.5768528599096792
 40
0.8066330493509277
 40
1.0
 40
1.0
 40
1.0
 40
1.0
 10
138.6483210433813
 20
15.6170262883474
 30
0.0
 10
138.6488112338841
 20
15.70306867267696
 30
0.0
 10
138.6497318139472
 20
15.8646566739784
 30
0.0
 10
138.6605129901671
 20
16.09031224172721
 30
0.0
 10
138.6738510897154
 20
16.28408634250011
 30
0.0
 10
138.6928410743164
 20
16.40112667783346
 30
0.0
 10
138.7015189905004
 20
16.45461098766839
 30
0.0
  0
SPLINE
  5
98
330
1F
100
AcDbEntity
  8
0
  6
Continuous
 62
     7
370
    25
100
AcDbSpline
210
0.0
220
0.0
230
1.0
 70
     8
 71
     3
 72
    11
 73
     7
 74
     0
 42
0.00000001
 43
0.00000001
 40
0.0
 40
0.0
 40
0.0
 40
0.0
 40
0.1774946570818515
 40
0.4052256231013747
 40
0.6783881083348545
 40
1.0
 40
1.0
 40
1.0
 40
1.0
 10
141.7892636658351
 20
4.680886606131897
 30
0.0
 10
141.7851219628048
 20
4.65791975933936
 30
0.0
 10
141.7756663306256
 20
4.605485759605565
 30
0.0
 10
141.769490842174
 20
4.516452958899468
 30
0.0
 10
141.7629363873818
 20
4.408578798150173
 30
0.0
 10
141.7631273622108
 20
4.330400555488424
 30
0.0
 10
141.7632306278832
 20
4.288127294423266
 30
0.0
  0
SPLINE
  5
99
330
1F
100
AcDbEntity
  8
0
  6
Continuous
 62
     7
370
    25
100
AcDbSpline
210
0.0
220
0.0
230
1.0
 70
     8
 71
     3
 72
    21
 73
    17
 74
     0
 42
0.00000001
 43
0.00000001
 40
0.0
 40
0.0
 40
0.0
 40
0.0
 40
0.0807693872710406
 40
0.1565178103150261
 40
0.2279008922640782
 40
0.2942662942845973
 40
0.3568144831594541
 40
0.4152138254066639
 40
0.468088752751689
 40
0.5171884320051175
 40
0.6046633108748645
 40
0.6814927280351208
 40
0.7484548354412889
 40
0.8052778924741676
 40
0.9054201988897141
 40
1.0
 40
1.0
 40
1.0
 40
1.0
 10
143.1056298892275
 20
5.867087639764876
 30
0.0
 10
143.063772664956
 20
5.841773965832236
 30
0.0
 10
142.9826602372133
 20
5.792720222219326
 30
0.0
 10
142.8641938091611
 20
5.721872216327632
 30
0.0
 10
142.7551469969447
 20
5.652377273106652
 30
0.0
 10
142.6523113916404
 20
5.588025199861044
 30
0.0
 10
142.5576006995911
 20
5.525568164560862
 30
0.0
 10
142.4699129679862
 20
5.467318501017353
 30
0.0
 10
142.3896816467307
 20
5.41256121272832
 30
0.0
 10
142.2964977154301
 20
5.345605361455328
 30
0.0
 10
142.1940771490922
 20
5.266670357873256
 30
0.0
 10
142.0879407606981
 20
5.17518804875957
 30
0.0
 10
142.0020768404653
 20
5.088843040368331
 30
0.0
 10
141.918935054984
 20
4.981471061197943
 30
0.0
 10
141.8425111095737
 20
4.848184956495557
 30
0.0
 10
141.8066715448988
 20
4.735580488996583
 30
0.0
 10
141.7892636658351
 20
4.680886606131897
 30
0.0
  0
SPLINE
  5
9D
330
1F
100
AcDbEntity
  8
0
  6
Continuous
 62
     7
370
    25
100
AcDbSpline
210
0.0
220
0.0
230
1.0
 70
     8
 71
     3
 72
    11
 73
     7
 74
     0
 42
0.00000001
 43
0.00000001
 40
0.0
 40
0.0
 40
0.0
 40
0.0
 40
0.2295275697008571
 40
0.4714659343032405
 40
0.7281863484998687
 40
0.9999999999999999
 40
0.9999999999999999
 40
0.9999999999999999
 40
0.9999999999999999
 10
141.9692311890676
 20
5.962164821849962
 30
0.0
 10
142.0215562252341
 20
6.015541798997867
 30
0.0
 10
142.1290355668043
 20
6.125181902076195
 30
0.0
 10
142.3121043700891
 20
6.27627072646829
 30
0.0
 10
142.5158880396606
 20
6.422756530682313
 30
0.0
 10
142.663163188279
 20
6.511757701653978
 30
0.0
 10
142.7389036154707
 20
6.55752908109705
 30
0.0
  0
SPLINE
  5
9E
330
1F
100
AcDbEntity
  8
0
  6
Continuous
 62
     7
370
    25
100
AcDbSpline
210
0.0
220
0.0
230
1.0
 70
     8
 71
     3
 72
    11
 73
     7
 74
     0
 42
0.00000001
 43
0.00000001
 40
0.0
 40
0.0
 40
0.0
 40
0.0
 40
0.2931163655185226
 40
0.5577352997456507
 40
0.791885122139169
 40
1.0
 40
1.0
 40
1.0
 40
1.0
 10
141.6907908701041
 20
5.522998790314088
 30
0.0
 10
141.7136282862504
 20
5.568576106499971
 30
0.0
 10
141.7570828136604
 20
5.655299609841615
 30
0.0
 10
141.8273332176667
 20
5.773767034868335
 30
0.0
 10
141.8956151080307
 20
5.876217827843219
 30
0.0
 10
141.9456747887298
 20
5.934662654251073
 30
0.0
 10
141.9692311890676
 20
5.962164821849963
 30
0.0
  0
SPLINE
  5
9F
330
1F
100
AcDbEntity
  8
0
  6
Continuous
 62
     7
370
    25
100
AcDbSpline
210
0.0
220
0.0
230
1.0
 70
     8
 71
     3
 72
    23
 73
    19
 74
     0
 42
0.00000001
 43
0.00000001
 40
0.0
 40
0.0
 40
0.0
 40
0.0
 40
0.0614108458635137
 40
0.1212906319555624
 40
0.1792175535869867
 40
0.2359295527076376
 40
0.29220625369504
 40
0.3481840331394641
 40
0.4044300962327662
 40
0.462008806506941
 40
0.520315373413971
 40
0.5803618891622316
 40
0.6418026678104923
 40
0.7065562880019914
 40
0.7738595814309465
 40
0.8452718594188928
 40
0.9201575665306257
 40
1.0
 40
1.0
 40
1.0
 40
1.0
 10
140.1718196991734
 20
7.021596279369493
 30
0.0
 10
140.2201532826638
 20
7.02049061349852
 30
0.0
 10
140.3156154246325
 20
7.018306847580035
 30
0.0
 10
140.4559703296099
 20
7.001578984297689
 30
0.0
 10
140.5900737822427
 20
6.971311257473135
 30
0.0
 10
140.7191003072784
 20
6.932498892566369
 30
0.0
 10
140.8412215470289
 20
6.87937649769073
 30
0.0
 10
140.9589328252136
 20
6.817836891804937
 30
0.0
 10
141.0689967264823
 20
6.741596606452972
 30
0.0
 10
141.174357815001
 20
6.656242637211396
 30
0.0
 10
141.2727072949
 20
6.5583434674095
 30
0.0
 10
141.3606982712008
 20
6.447137541292197
 30
0.0
 10
141.4393241520299
 20
6.323194941096261
 30
0.0
 10
141.5093334229749
 20
6.187721548322526
 30
0.0
 10
141.5693968495432
 20
6.039066406438534
 30
0.0
 10
141.6200304752835
 20
5.878608906100165
 30
0.0
 10
141.6607403814062
 20
5.705176536289324
 30
0.0
 10
141.6805623742482
 20
5.585007908983414
 30
0.0
 10
141.6907908701041
 20
5.522998790314088
 30
0.0
  0
SPLINE
  5
A0
330
1F
100
AcDbEntity
  8
0
  6
Continuous
 62
     7
370
    25
100
AcDbSpline
210
0.0
220
0.0
230
1.0
 70
     8
 71
     3
 72
    27
 73
    23
 74
     0
 42
0.00000001
 43
0.00000001
 40
0.0
 40
0.0
 40
0.0
 40
0.0
 40
0.0621104705197245
 40
0.1202075459522594
 40
0.1743787197900418
 40
0.2254354798408259
 40
0.2723482144901596
 40
0.3163765484979861
 40
0.3568563785420873
 40
0.3939638607414345
 40
0.4295736018467843
 40
0.4646659826520613
 40
0.5000179900361749
 40
0.5354630904251244
 40
0.5713424926556311
 40
0.6078862161597435
 40
0.6453120335985552
 40
0.6841656484181423
 40
0.7625873380070459
 40
0.8405031439261097
 40
0.9190759634871261
 40
1.0
 40
1.0
 40
1.0
 40
1.0
 10
138.6483210433814
 20
5.126843864959564
 30
0.0
 10
138.6487733696845
 20
5.184572316477059
 30
0.0
 10
138.6496487943016
 20
5.296298977545231
 30
0.0
 10
138.6558458064683
 20
5.458325705077407
 30
0.0
 10
138.6692049387948
 20
5.609561412422743
 30
0.0
 10
138.6836509792212
 20
5.750284170273263
 30
0.0
 10
138.7058237193228
 20
5.880468980164022
 30
0.0
 10
138.7312553591075
 20
5.999981520795021
 30
0.0
 10
138.7615193688644
 20
6.109006357325478
 30
0.0
 10
138.7972635839119
 20
6.208030751031393
 30
0.0
 10
138.8377025125576
 20
6.299904177358465
 30
0.0
 10
138.8875987159375
 20
6.385062521069282
 30
0.0
 10
138.9422703482948
 20
6.467052398697137
 30
0.0
 10
139.006516520826
 20
6.542806071028248
 30
0.0
 10
139.0768035497866
 20
6.614416484670007
 30
0.0
 10
139.1541257991637
 20
6.68125652270826
 30
0.0
 10
139.238307112858
 20
6.74397815087812
 30
0.0
 10
139.3603414462999
 20
6.820205605885376
 30
0.0
 10
139.5230944669127
 20
6.901837533805989
 30
0.0
 10
139.7309387561097
 20
6.970469386024861
 30
0.0
 10
139.9481226597458
 20
7.014479065173171
 30
0.0
 10
140.0965247978373
 20
7.019200673499736
 30
0.0
 10
140.1718196991734
 20
7.021596279369493
 30
0.0
  0
CIRCLE
  5
AD
330
1F
100
AcDbEntity
  8
0
  6
Continuous
 62
     7
370
    25
100
AcDbCircle
 10
109.45
 20
0.0
 30
0.0
 40
7.150000000000034
  0
CIRCLE
  5
AE
330
1F
100
AcDbEntity
  8
0
  6
Continuous
 62
     7
370
    25
100
AcDbCircle
 10
109.45
 20
-25.6375144213
 30
0.0
 40
2.899999999999963
  0
CIRCLE
  5
AF
330
1F
100
AcDbEntity
  8
0
  6
Continuous
 62
     7
370
    25
100
AcDbCircle
 10
109.45
 20
25.6375144213
 30
0.0
 40
2.899999999999963
  0
SPLINE
  5
D2
330
1F
100
AcDbEntity
  8
0
  6
Continuous
 62
     7
370
    25
100
AcDbSpline
210
0.0
220
0.0
230
1.0
 70
     8
 71
     3
 72
    23
 73
    19
 74
     0
 42
0.00000001
 43
0.00000001
 40
0.0
 40
0.0
 40
0.0
 40
0.0
 40
0.0608158548443679
 40
0.1199866690421464
 40
0.1779252952201244
 40
0.2348785826693437
 40
0.2923692479899789
 40
0.3505047108150521
 40
0.4096232437020357
 40
0.4709034021537961
 40
0.5328526995519274
 40
0.594847734918193
 40
0.6576070054901845
 40
0.7209994882471741
 40
0.7864912508039233
 40
0.8547118193136809
 40
0.9257123929760942
 40
1.0
 40
1.0
 40
1.0
 40
1.0
 10
101.1210123315225
 20
3.463379796576611
 30
0.0
 10
101.1507144526746
 20
3.454043495947302
 30
0.0
 10
101.2093152663877
 20
3.435623437287378
 30
0.0
 10
101.2921729804568
 20
3.39743448964804
 30
0.0
 10
101.3694724565965
 20
3.353040907038891
 30
0.0
 10
101.4410059694654
 20
3.301117376195358
 30
0.0
 10
101.5057661289066
 20
3.240878061889833
 30
0.0
 10
101.5652671595142
 20
3.173980584838647
 30
0.0
 10
101.6183048256165
 20
3.099431161071979
 30
0.0
 10
101.6649839455072
 20
3.018539864956031
 30
0.0
 10
101.7046358590111
 20
2.932304740043785
 30
0.0
 10
101.7346092935769
 20
2.841419522601096
 30
0.0
 10
101.7548883869233
 20
2.747163030717539
 30
0.0
 10
101.7656848947228
 20
2.649581550032726
 30
0.0
 10
101.767050927117
 20
2.54857954577474
 30
0.0
 10
101.757404751399
 20
2.444193447067691
 30
0.0
 10
101.7400515181491
 20
2.336220084120478
 30
0.0
 10
101.7209854183297
 20
2.264347081825067
 30
0.0
 10
101.7112366904968
 20
2.227597544974046
 30
0.0
  0
SPLINE
  5
D3
330
1F
100
AcDbEntity
  8
0
  6
Continuous
 62
     7
370
    25
100
AcDbSpline
210
0.0
220
0.0
230
1.0
 70
     8
 71
     3
 72
    19
 73
    15
 74
     0
 42
0.00000001
 43
0.00000001
 40
0.0
 40
0.0
 40
0.0
 40
0.0
 40
0.1098200930004333
 40
0.2096513458439069
 40
0.2993143984269923
 40
0.3800883736149624
 40
0.456559078663429
 40
0.5321297440606773
 40
0.6076879201590568
 40
0.6844685859842154
 40
0.762266797726718
 40
0.84023667164168
 40
0.9187793808425249
 40
1.0
 40
1.0
 40
1.0
 40
1.0
 10
100.1529935013942
 20
3.051876391127893
 30
0.0
 10
100.1773625968404
 20
3.085487689211626
 30
0.0
 10
100.2238842625729
 20
3.149653122751985
 30
0.0
 10
100.2971014522482
 20
3.23616614696874
 30
0.0
 10
100.3714193067784
 20
3.306516025463651
 30
0.0
 10
100.44507166233
 20
3.364114741556359
 30
0.0
 10
100.520772892284
 20
3.409484308536125
 30
0.0
 10
100.5996198110682
 20
3.444289821538576
 30
0.0
 10
100.6815279243694
 20
3.471516296330105
 30
0.0
 10
100.7669114298293
 20
3.488997423213041
 30
0.0
 10
100.8545104725425
 20
3.498297852714
 30
0.0
 10
100.9432263484787
 20
3.496583596135531
 30
0.0
 10
101.0327357665122
 20
3.486232118454006
 30
0.0
 10
101.0912598216929
 20
3.471081885247667
 30
0.0
 10
101.1210123315224
 20
3.46337979657661
 30
0.0
  0
SPLINE
  5
D4
330
1F
100
AcDbEntity
  8
0
  6
Continuous
 62
     7
370
    25
100
AcDbSpline
210
0.0
220
0.0
230
1.0
 70
     8
 71
     3
 72
    15
 73
    11
 74
     0
 42
0.00000001
 43
0.00000001
 40
0.0
 40
0.0
 40
0.0
 40
0.0
 40
0.1257768266239721
 40
0.2485067032754403
 40
0.3687259447949834
 40
0.4904948001035697
 40
0.6133812637192779
 40
0.7371545483707946
 40
0.8657194044238661
 40
1.0
 40
1.0
 40
1.0
 40
1.0
 10
99.62637090524038
 20
3.625564291768919
 30
0.0
 10
99.65916019072272
 20
3.615011445108295
 30
0.0
 10
99.72394443959185
 20
3.594161395029969
 30
0.0
 10
99.81394590807089
 20
3.547664659852179
 30
0.0
 10
99.89591794616685
 20
3.49036693645565
 30
0.0
 10
99.96915631270883
 20
3.422109737108169
 30
0.0
 10
100.0330433994188
 20
3.343751826656548
 30
0.0
 10
100.0857806634852
 20
3.255343640851791
 30
0.0
 10
100.1269013271209
 20
3.157433306646827
 30
0.0
 10
100.1441709305104
 20
3.087568448052412
 30
0.0
 10
100.1529935013942
 20
3.051876391127892
 30
0.0
  0
SPLINE
  5
D5
330
1F
100
AcDbEntity
  8
0
  6
Continuous
 62
     7
370
    25
100
AcDbSpline
210
0.0
220
0.0
230
1.0
 70
     8
 71
     3
 72
    23
 73
    19
 74
     0
 42
0.00000001
 43
0.00000001
 40
0.0
 40
0.0
 40
0.0
 40
0.0
 40
0.063358419004873
 40
0.1226670948779393
 40
0.1782948256474099
 40
0.2304316600632542
 40
0.279343895949714
 40
0.3247800270645848
 40
0.3670577778036285
 40
0.4065051675419024
 40
0.4813711717167907
 40
0.5546418411443125
 40
0.6273800295094449
 40
0.7014585212049186
 40
0.7760650997720544
 40
0.8496051548160823
 40
0.9235833141284516
 40
1.0
 40
1.0
 40
1.0
 40
1.0
 10
98.60301854145833
 20
2.863615173179174
 30
0.0
 10
98.61178107255982
 20
2.892914137580851
 30
0.0
 10
98.62874605134054
 20
2.949639335313602
 30
0.0
 10
98.65572071310403
 20
3.031399589060755
 30
0.0
 10
98.68537823661428
 20
3.106421598785862
 30
0.0
 10
98.71503961116584
 20
3.175993901568907
 30
0.0
 10
98.74592776641467
 20
3.239657908205795
 30
0.0
 10
98.77869077195484
 20
3.296908588089979
 30
0.0
 10
98.81125494502649
 20
3.349021668575617
 30
0.0
 10
98.8579756023263
 20
3.40854924085431
 30
0.0
 10
98.92051997023442
 20
3.474414277815384
 30
0.0
 10
99.00515954654878
 20
3.539975707195815
 30
0.0
 10
99.09863235013972
 20
3.591297460099492
 30
0.0
 10
99.19911901113309
 20
3.628739519810277
 30
0.0
 10
99.30432718823542
 20
3.651565991231288
 30
0.0
 10
99.41155641458408
 20
3.659137479217429
 30
0.0
 10
99.5199772364721
 20
3.652151150464651
 30
0.0
 10
99.59052505768955
 20
3.634521859401431
 30
0.0
 10
99.62637090524039
 20
3.625564291768919
 30
0.0
  0
SPLINE
  5
DF
330
1F
100
AcDbEntity
  8
0
  6
Continuous
 62
     7
370
    25
100
AcDbSpline
210
0.0
220
0.0
230
1.0
 70
     8
 71
     3
 72
    27
 73
    23
 74
     0
 42
0.00000001
 43
0.00000001
 40
0.0
 40
0.0
 40
0.0
 40
0.0
 40
0.0467550037406114
 40
0.0919532945919844
 40
0.1357816421940864
 40
0.1782017317070687
 40
0.2194046833277052
 40
0.2599900116320212
 40
0.3000859584768366
 40
0.3403472501338285
 40
0.3801041396657615
 40
0.4196714086118182
 40
0.4587766319985034
 40
0.4979347078808608
 40
0.5374163504482355
 40
0.577652727937213
 40
0.6187048166805865
 40
0.6604772786704939
 40
0.7453418318587575
 40
0.8297732543713331
 40
0.9146163882141609
 40
1.0
 40
1.0
 40
1.0
 40
1.0
 10
129.1728693832251
 20
10.63679294103336
 30
0.0
 10
129.1735932604633
 20
10.58694789822858
 30
0.0
 10
129.175016913369
 20
10.48891740869196
 30
0.0
 10
129.1905746485274
 20
10.34489376162324
 30
0.0
 10
129.2135383324396
 20
10.20660026702747
 30
0.0
 10
129.2477991592025
 20
10.07497863119855
 30
0.0
 10
129.2910601281308
 20
9.949772720442498
 30
0.0
 10
129.3427451852627
 20
9.830415030565252
 30
0.0
 10
129.4056484559162
 20
9.717695190149877
 30
0.0
 10
129.4777523625523
 20
9.61172769035276
 30
0.0
 10
129.5586968042723
 20
9.513114499251293
 30
0.0
 10
129.6456591626202
 20
9.421508425749265
 30
0.0
 10
129.7388430364144
 20
9.337139952151281
 30
0.0
 10
129.8388024858865
 20
9.261021322066433
 30
0.0
 10
129.945902649562
 20
9.193138361813174
 30
0.0
 10
130.0591236496261
 20
9.13170682750631
 30
0.0
 10
130.1792229528821
 20
9.078663950633086
 30
0.0
 10
130.3476808602755
 20
9.01871037184724
 30
0.0
 10
130.5650690146194
 20
8.959762825746541
 30
0.0
 10
130.8309259770974
 20
8.907386809178467
 30
0.0
 10
131.1007451013739
 20
8.874361168471175
 30
0.0
 10
131.2822076669014
 20
8.87066437048428
 30
0.0
 10
131.3732270257657
 20
8.86881010273688
 30
0.0
  0
SPLINE
  5
E0
330
1F
100
AcDbEntity
  8
0
  6
Continuous
 62
     7
370
    25
100
AcDbSpline
210
0.0
220
0.0
230
1.0
 70
     8
 71
     3
 72
    23
 73
    19
 74
     0
 42
0.00000001
 43
0.00000001
 40
0.0
 40
0.0
 40
0.0
 40
0.0
 40
0.0772311103286324
 40
0.1511651795217269
 40
0.2207847057254025
 40
0.2871495176777774
 40
0.3506324812950909
 40
0.4113067715078918
 40
0.4699644151376565
 40
0.5267072266832776
 40
0.5824983333641314
 40
0.6385087274080283
 40
0.6949179812139091
 40
0.7524203526591527
 40
0.8112509754155088
 40
0.8718561089908079
 40
0.934644187852686
 40
1.0
 40
1.0
 40
1.0
 40
1.0
 10
130.3341692501215
 20
12.05615944501786
 30
0.0
 10
130.2852972027983
 20
12.04051080355911
 30
0.0
 10
130.1896394843509
 20
12.00988157027065
 30
0.0
 10
130.0533102353976
 20
11.95549637042498
 30
0.0
 10
129.9267521511612
 20
11.8967621678874
 30
0.0
 10
129.8108255165936
 20
11.832279865683
 30
0.0
 10
129.705502563834
 20
11.76190971717006
 30
0.0
 10
129.6095032489565
 20
11.68727215992689
 30
0.0
 10
129.5246194138687
 20
11.60657895287556
 30
0.0
 10
129.4488938484076
 20
11.52147146328041
 30
0.0
 10
129.3843829132926
 20
11.42975196589561
 30
0.0
 10
129.3272156083835
 20
11.33357076404371
 30
0.0
 10
129.279918381107
 20
11.23089987823408
 30
0.0
 10
129.2399146975563
 20
11.12321630478297
 30
0.0
 10
129.2094675838741
 20
11.00951353675925
 30
0.0
 10
129.1880468383292
 20
10.89025458698926
 30
0.0
 10
129.1756495602662
 20
10.76533467174315
 30
0.0
 10
129.173808406518
 20
10.68020876580372
 30
0.0
 10
129.1728693832251
 20
10.63679294103336
 30
0.0
  0
SPLINE
  5
E2
330
1F
100
AcDbEntity
  8
0
  6
Continuous
 62
     7
370
    25
100
AcDbSpline
210
0.0
220
0.0
230
1.0
 70
     8
 71
     3
 72
    23
 73
    19
 74
     0
 42
0.00000001
 43
0.00000001
 40
0.0
 40
0.0
 40
0.0
 40
0.0
 40
0.0686384570519322
 40
0.1349156835492897
 40
0.1987420885268362
 40
0.2613968197864535
 40
0.322365687998834
 40
0.3823766892983145
 40
0.4422713248175678
 40
0.5020186480362455
 40
0.5618826233868562
 40
0.6217723543339161
 40
0.6815896961303071
 40
0.7420906310800603
 40
0.8039396508662704
 40
0.8671835129966793
 40
0.9323714704977303
 40
1.0
 40
1.0
 40
1.0
 40
1.0
 10
128.5209115632131
 20
10.67527656235352
 30
0.0
 10
128.5221352507255
 20
10.74287083231031
 30
0.0
 10
128.524540529694
 20
10.87573406273429
 30
0.0
 10
128.5458417370091
 20
11.07044043473355
 30
0.0
 10
128.5777604367834
 20
11.25769669187896
 30
0.0
 10
128.6259470097064
 20
11.43604416582379
 30
0.0
 10
128.685059521731
 20
11.60716294539447
 30
0.0
 10
128.7613007227817
 20
11.76835748272344
 30
0.0
 10
128.8476874898911
 20
11.92290712865362
 30
0.0
 10
128.9491364721112
 20
12.06794863961398
 30
0.0
 10
129.0623235389065
 20
12.2039156739282
 30
0.0
 10
129.1869705745652
 20
12.32958272423462
 30
0.0
 10
129.3222526246127
 20
12.44472025114139
 30
0.0
 10
129.4692279131328
 20
12.54790304829007
 30
0.0
 10
129.6269045405889
 20
12.64054717801186
 30
0.0
 10
129.7949737209132
 20
12.72364820922164
 30
0.0
 10
129.9745068992993
 20
12.79522619359882
 30
0.0
 10
130.0995740395985
 20
12.8335054511718
 30
0.0
 10
130.1632566966114
 20
12.85299678058811
 30
0.0
  0
SPLINE
  5
E3
330
1F
100
AcDbEntity
  8
0
  6
Continuous
 62
     7
370
    25
100
AcDbSpline
210
0.0
220
0.0
230
1.0
 70
     8
 71
     3
 72
    31
 73
    27
 74
     0
 42
0.00000001
 43
0.00000001
 40
0.0
 40
0.0
 40
0.0
 40
0.0
 40
0.0494004217473881
 40
0.097602756253408
 40
0.1442517537526807
 40
0.1894682667992651
 40
0.2339102194817923
 40
0.2774794498845803
 40
0.3201003021570423
 40
0.3621972596051082
 40
0.4034979603164061
 40
0.443945014764547
 40
0.4836597408083769
 40
0.5229030460471586
 40
0.5618673495066676
 40
0.6008030355777532
 40
0.6401117005041415
 40
0.6796499820783976
 40
0.7194055109337164
 40
0.7588591270806683
 40
0.7983195916248509
 40
0.8378057270800487
 40
0.8774710937264308
 40
0.9176844813466609
 40
0.958393741233562
 40
1.0
 40
1.0
 40
1.0
 40
1.0
 10
131.3766226394116
 20
8.071972767166633
 30
0.0
 10
131.3049177456669
 20
8.07325137707724
 30
0.0
 10
131.163246986212
 20
8.075777587320673
 30
0.0
 10
130.9542062904219
 20
8.09003163375452
 30
0.0
 10
130.7524617063347
 20
8.116230750498998
 30
0.0
 10
130.5578561953092
 20
8.152549043836295
 30
0.0
 10
130.3699701279457
 20
8.198819827020925
 30
0.0
 10
130.1887593322424
 20
8.255151071377716
 30
0.0
 10
130.0149610022501
 20
8.322351433725377
 30
0.0
 10
129.8485281555409
 20
8.398673029646329
 30
0.0
 10
129.691493534125
 20
8.48645347599683
 30
0.0
 10
129.5424582557975
 20
8.580944280972448
 30
0.0
 10
129.4043233646508
 20
8.685913946497465
 30
0.0
 10
129.2745448476006
 20
8.797740339421619
 30
0.0
 10
129.1553314943868
 20
8.919304183601831
 30
0.0
 10
129.0464006031566
 20
9.050211228685372
 30
0.0
 10
128.9467619578052
 20
9.189338191990467
 30
0.0
 10
128.8573396598662
 20
9.336663116873959
 30
0.0
 10
128.7788763191853
 20
9.490260740383496
 30
0.0
 10
128.7089883251342
 20
9.647849523236319
 30
0.0
 10
128.6517056171455
 20
9.810056295389943
 30
0.0
 10
128.6040773473096
 20
9.97559502711698
 30
0.0
 10
128.5661608202898
 20
10.14482211059779
 30
0.0
 10
128.5408059203638
 20
10.31813296265396
 30
0.0
 10
128.5242827031263
 20
10.49536744141686
 30
0.0
 10
128.5220434104355
 20
10.61487276896072
 30
0.0
 10
128.5209115632131
 20
10.67527656235352
 30
0.0
  0
SPLINE
  5
E4
330
1F
100
AcDbEntity
  8
0
  6
Continuous
 62
     7
370
    25
100
AcDbSpline
210
0.0
220
0.0
230
1.0
 70
     8
 71
     3
 72
    31
 73
    27
 74
     0
 42
0.00000001
 43
0.00000001
 40
0.0
 40
0.0
 40
0.0
 40
0.0
 40
0.0491950405787718
 40
0.0962461656399227
 40
0.1413461070737085
 40
0.1846001132793328
 40
0.2260724993954655
 40
0.266186184566013
 40
0.3053022439773148
 40
0.34325682007455
 40
0.3808883292137067
 40
0.4185061746628038
 40
0.4563284571706588
 40
0.4942457664252888
 40
0.5330318658349414
 40
0.5724808269208761
 40
0.6130857167494496
 40
0.65494061502632
 40
0.697402181845138
 40
0.7398887124862296
 40
0.7821986682706831
 40
0.8250646580230202
 40
0.8679898223820106
 40
0.9114121255374579
 40
0.955372742262343
 40
1.0
 40
1.0
 40
1.0
 40
1.0
 10
134.3160921855422
 20
10.6911227593677
 30
0.0
 10
134.3150147536923
 20
10.61790055568881
 30
0.0
 10
134.3129068443775
 20
10.47464716549162
 30
0.0
 10
134.2961683363623
 20
10.26473664356377
 30
0.0
 10
134.2661411592786
 20
10.06536582190171
 30
0.0
 10
134.2277319106907
 20
9.875824140037714
 30
0.0
 10
134.175000746719
 20
9.697455808970602
 30
0.0
 10
134.112095190016
 20
9.528969897349747
 30
0.0
 10
134.0359316017152
 20
9.371820386293274
 30
0.0
 10
133.9495237497167
 20
9.224344229887464
 30
0.0
 10
133.8513063311373
 20
9.087233010416965
 30
0.0
 10
133.7439915442568
 20
8.957351759595406
 30
0.0
 10
133.6246086819905
 20
8.837858030922334
 30
0.0
 10
133.495980858582
 20
8.725762820905802
 30
0.0
 10
133.3564101061532
 20
8.623507927659817
 30
0.0
 10
133.2077928739201
 20
8.527331282345838
 30
0.0
 10
133.0475104433372
 20
8.441927235768798
 30
0.0
 10
132.8785344793151
 20
8.364130773154438
 30
0.0
 10
132.7025009659075
 20
8.295847155462265
 30
0.0
 10
132.5228870531486
 20
8.235440038010966
 30
0.0
 10
132.3393348404197
 20
8.186053917143047
 30
0.0
 10
132.1533888878149
 20
8.143535653982198
 30
0.0
 10
131.9634845879347
 20
8.112648195998691
 30
0.0
 10
131.7710468041968
 20
8.088124510660231
 30
0.0
 10
131.5748957265047
 20
8.07464089541345
 30
0.0
 10
131.4430444040715
 20
8.07286659390374
 30
0.0
 10
131.3766226394116
 20
8.071972767166633
 30
0.0
  0
SPLINE
  5
E5
330
1F
100
AcDbEntity
  8
0
  6
Continuous
 62
     7
370
    25
100
AcDbSpline
210
0.0
220
0.0
230
1.0
 70
     8
 71
     3
 72
    23
 73
    19
 74
     0
 42
0.00000001
 43
0.00000001
 40
0.0
 40
0.0
 40
0.0
 40
0.0
 40
0.0715854855035057
 40
0.1400300944370839
 40
0.2062178884797697
 40
0.2701828950982524
 40
0.3320339647035818
 40
0.3925188740537353
 40
0.4526025187700697
 40
0.5120514538995816
 40
0.5713367862042905
 40
0.629962099924669
 40
0.6887383048887302
 40
0.7481389263466425
 40
0.8086844013755364
 40
0.8702434318399056
 40
0.9338934723943141
 40
1.0
 40
1.0
 40
1.0
 40
1.0
 10
132.4349222257158
 20
12.99787629614634
 30
0.0
 10
132.5096080568138
 20
12.97791387147883
 30
0.0
 10
132.6557028120315
 20
12.93886489120408
 30
0.0
 10
132.8647724826871
 20
12.86165002745742
 30
0.0
 10
133.0610061053253
 20
12.7750239194804
 30
0.0
 10
133.2437450444022
 20
12.67671452465028
 30
0.0
 10
133.4121947433473
 20
12.56641355547552
 30
0.0
 10
133.5672009926264
 20
12.44460284826359
 30
0.0
 10
133.7090102617171
 20
12.31130040726414
 30
0.0
 10
133.8358730050216
 20
12.16548331441911
 30
0.0
 10
133.9493428908557
 20
12.01094812720478
 30
0.0
 10
134.0465978675435
 20
11.84661318728749
 30
0.0
 10
134.1314044568265
 20
11.67539406565778
 30
0.0
 10
134.1993815397015
 20
11.49449030669111
 30
0.0
 10
134.2509417250579
 20
11.30523015534585
 30
0.0
 10
134.2884021018404
 20
11.10808530133371
 30
0.0
 10
134.3115047829573
 20
10.90257676816643
 30
0.0
 10
134.3145438731639
 20
10.76249143765461
 30
0.0
 10
134.3160921855422
 20
10.6911227593677
 30
0.0
  0
SPLINE
  5
E7
330
1F
100
AcDbEntity
  8
0
  6
Continuous
 62
     7
370
    25
100
AcDbSpline
210
0.0
220
0.0
230
1.0
 70
     8
 71
     3
 72
    23
 73
    19
 74
     0
 42
0.00000001
 43
0.00000001
 40
0.0
 40
0.0
 40
0.0
 40
0.0
 40
0.0633358805656877
 40
0.1251107589802131
 40
0.1846884118917149
 40
0.2432104439678637
 40
0.3008880404131185
 40
0.3583701155312982
 40
0.4157614077031957
 40
0.4743866229897826
 40
0.5339662649724071
 40
0.5940075641988062
 40
0.6550724073076845
 40
0.7186100426051377
 40
0.7843747830517803
 40
0.8529914722129236
 40
0.9249004292977608
 40
1.0
 40
1.0
 40
1.0
 40
1.0
 10
133.6641343655301
 20
10.61641925915798
 30
0.0
 10
133.6631045452776
 20
10.66552354937632
 30
0.0
 10
133.661070286146
 20
10.76252188528844
 30
0.0
 10
133.6432643015443
 20
10.90473376219204
 30
0.0
 10
133.6170248541946
 20
11.04182405102364
 30
0.0
 10
133.576534737319
 20
11.17213192209606
 30
0.0
 10
133.5269593331351
 20
11.29741016358485
 30
0.0
 10
133.4658241895358
 20
11.41663233490133
 30
0.0
 10
133.3922964551592
 20
11.52942350078394
 30
0.0
 10
133.3088126192714
 20
11.63711033325818
 30
0.0
 10
133.2138222802552
 20
11.73770699198424
 30
0.0
 10
133.1080907263949
 20
11.82989842165575
 30
0.0
 10
132.9911359430197
 20
11.91260455023574
 30
0.0
 10
132.8648348836713
 20
11.98929394397994
 30
0.0
 10
132.7254144692021
 20
12.0537271294976
 30
0.0
 10
132.5770302084486
 20
12.11340747318878
 30
0.0
 10
132.4172432742385
 20
12.16313744675579
 30
0.0
 10
132.3060821874373
 20
12.18822363580303
 30
0.0
 10
132.2492953464068
 20
12.20103896057609
 30
0.0
  0
SPLINE
  5
E8
330
1F
100
AcDbEntity
  8
0
  6
Continuous
 62
     7
370
    25
100
AcDbSpline
210
0.0
220
0.0
230
1.0
 70
     8
 71
     3
 72
    27
 73
    23
 74
     0
 42
0.00000001
 43
0.00000001
 40
0.0
 40
0.0
 40
0.0
 40
0.0
 40
0.1053427492519669
 40
0.2047194383135618
 40
0.2980720711573858
 40
0.3870729164524963
 40
0.4297284980647173
 40
0.4709038092596574
 40
0.5111240459467188
 40
0.5501809676540441
 40
0.5883563696270291
 40
0.6266848241054149
 40
0.6644533153457577
 40
0.7025162991015843
 40
0.7404824323444696
 40
0.7776192019023255
 40
0.8147169451568462
 40
0.8515272312836184
 40
0.8880989944432266
 40
0.9251120395432874
 40
0.9621038798033956
 40
0.9999999999999999
 40
0.9999999999999999
 40
0.9999999999999999
 40
0.9999999999999999
 10
131.3732270257657
 20
8.86881010273688
 30
0.0
 10
131.4876668078739
 20
8.870924685945713
 30
0.0
 10
131.710065103725
 20
8.875034093473554
 30
0.0
 10
132.0318850365109
 20
8.914597902864848
 30
0.0
 10
132.3319176657271
 20
8.97589181990372
 30
0.0
 10
132.5657314749963
 20
9.049133495877742
 30
0.0
 10
132.7384430923168
 20
9.122810836835608
 30
0.0
 10
132.8593973652899
 20
9.18238680484385
 30
0.0
 10
132.9713221207673
 20
9.250393190115112
 30
0.0
 10
133.0748536096804
 20
9.325135280629159
 30
0.0
 10
133.1696896752598
 20
9.407576647424
 30
0.0
 10
133.256334134349
 20
9.496568505841356
 30
0.0
 10
133.3356206998808
 20
9.592130789264727
 30
0.0
 10
133.403837826468
 20
9.695395807367722
 30
0.0
 10
133.4644086863075
 20
9.802388763652317
 30
0.0
 10
133.5182694516174
 20
9.91175949217824
 30
0.0
 10
133.5638225030769
 20
10.02357685423223
 30
0.0
 10
133.5992090386002
 20
10.13829198557155
 30
0.0
 10
133.6297879249507
 20
10.25429397890308
 30
0.0
 10
133.649763488701
 20
10.37286047662968
 30
0.0
 10
133.6610370675313
 20
10.49395766819648
 30
0.0
 10
133.6630936550277
 20
10.57527143808553
 30
0.0
 10
133.6641343655301
 20
10.61641925915798
 30
0.0
  0
SPLINE
  5
10F
330
1F
100
AcDbEntity
  8
0
  6
Continuous
 62
     7
370
    25
100
AcDbSpline
210
0.0
220
0.0
230
1.0
 70
     8
 71
     3
 72
    15
 73
    11
 74
     0
 42
0.00000001
 43
0.00000001
 40
0.0
 40
0.0
 40
0.0
 40
0.0
 40
0.1350419475756189
 40
0.2695925227490543
 40
0.4048585032027807
 40
0.5431498969951386
 40
0.6763576106133564
 40
0.7964826021232547
 40
0.9036799671208465
 40
1.0
 40
1.0
 40
1.0
 40
1.0
 10
143.7191040879193
 20
-0.8856560307068359
 30
0.0
 10
143.7171591104335
 20
-0.8070250934422232
 30
0.0
 10
143.7132762325834
 20
-0.6500493305488511
 30
0.0
 10
143.6746240060218
 20
-0.4170868838755014
 30
0.0
 10
143.6166431523534
 20
-0.1864799399872462
 30
0.0
 10
143.5323083769134
 20
0.0350623587860248
 30
0.0
 10
143.4382997309558
 20
0.2427310221795934
 30
0.0
 10
143.3393061646581
 20
0.4277884310908397
 30
0.0
 10
143.2370804589797
 20
0.5865181014058244
 30
0.0
 10
143.1601494697575
 20
0.676670382660743
 30
0.0
 10
143.1237398286722
 20
0.7193373525866427
 30
0.0
  0
SPLINE
  5
110
330
1F
100
AcDbEntity
  8
0
  6
Continuous
 62
     7
370
    25
100
AcDbSpline
210
0.0
220
0.0
230
1.0
 70
     8
 71
     3
 72
    27
 73
    23
 74
     0
 42
0.00000001
 43
0.00000001
 40
0.0
 40
0.0
 40
0.0
 40
0.0
 40
0.0535325317576196
 40
0.1052015138523639
 40
0.1544209144639318
 40
0.2020579923670401
 40
0.2478216295783212
 40
0.2922527812624487
 40
0.3350215205795745
 40
0.3767202258179504
 40
0.4173798118714324
 40
0.4572422864264972
 40
0.4961008285130758
 40
0.5347057220528917
 40
0.5728039826764075
 40
0.6111421627482305
 40
0.6495372455305048
 40
0.6888801510076593
 40
0.7671444911400739
 40
0.8443917345147037
 40
0.9215796047705791
 40
1.0
 40
1.0
 40
1.0
 40
1.0
 10
141.4712078543362
 20
-2.90265053636902
 30
0.0
 10
141.5323569685061
 20
-2.902243246509343
 30
0.0
 10
141.6525265022494
 20
-2.90144284517565
 30
0.0
 10
141.8284410023977
 20
-2.887945409132147
 30
0.0
 10
141.9971419702187
 20
-2.869760403986728
 30
0.0
 10
142.1575422849372
 20
-2.840870569307393
 30
0.0
 10
142.311061273416
 20
-2.805999433248511
 30
0.0
 10
142.4571121462211
 20
-2.763858865731874
 30
0.0
 10
142.5944924855156
 20
-2.710677873389562
 30
0.0
 10
142.7250971538314
 20
-2.652489917786427
 30
0.0
 10
142.847686268588
 20
-2.585444827420588
 30
0.0
 10
142.9620624801451
 20
-2.510975784255356
 30
0.0
 10
143.0678318769693
 20
-2.428545657846185
 30
0.0
 10
143.1665906530773
 20
-2.340817031770445
 30
0.0
 10
143.2565885900685
 20
-2.244876032893129
 30
0.0
 10
143.3381740118865
 20
-2.142006840758313
 30
0.0
 10
143.4109360094047
 20
-2.031013765247614
 30
0.0
 10
143.4974512764486
 20
-1.875176365138037
 30
0.0
 10
143.587059255359
 20
-1.670733452537721
 30
0.0
 10
143.6622907837213
 20
-1.415433591438366
 30
0.0
 10
143.711496394798
 20
-1.153161207922811
 30
0.0
 10
143.7165548347657
 20
-0.9752940334161075
 30
0.0
 10
143.7191040879193
 20
-0.8856560307068359
 30
0.0
  0
SPLINE
  5
111
330
1F
100
AcDbEntity
  8
0
  6
Continuous
 62
     7
370
    25
100
AcDbSpline
210
0.0
220
0.0
230
1.0
 70
     8
 71
     3
 72
    11
 73
     7
 74
     0
 42
0.00000001
 43
0.00000001
 40
0.0
 40
0.0
 40
0.0
 40
0.0
 40
0.2429873533359895
 40
0.4900460646336924
 40
0.7406744326000914
 40
1.0
 40
1.0
 40
1.0
 40
1.0
 10
140.3438641238987
 20
-2.692122490323472
 30
0.0
 10
140.4315533717379
 20
-2.724618948581097
 30
0.0
 10
140.6084011386043
 20
-2.790156357277681
 30
0.0
 10
140.8867003687513
 20
-2.853508756136425
 30
0.0
 10
141.1752821935231
 20
-2.895106648955881
 30
0.0
 10
141.3714507574389
 20
-2.900107477731973
 30
0.0
 10
141.4712078543362
 20
-2.90265053636902
 30
0.0
  0
SPLINE
  5
112
330
1F
100
AcDbEntity
  8
0
  6
Continuous
 62
     7
370
    25
100
AcDbSpline
210
0.0
220
0.0
230
1.0
 70
     8
 71
     3
 72
    19
 73
    15
 74
     0
 42
0.00000001
 43
0.00000001
 40
0.0
 40
0.0
 40
0.0
 40
0.0
 40
0.1068295755711514
 40
0.2068351619072428
 40
0.3015218830582366
 40
0.3909145598512305
 40
0.4760794803076145
 40
0.5566070744612184
 40
0.6340898671005487
 40
0.7092081102672849
 40
0.7829311704735546
 40
0.8557615609813224
 40
0.9277980888298979
 40
1.0
 40
1.0
 40
1.0
 40
1.0
 10
139.2278391056143
 20
-0.8958428716445236
 30
0.0
 10
139.229866818964
 20
-0.9762880257855255
 30
0.0
 10
139.233792720726
 20
-1.132039711519082
 30
0.0
 10
139.2619410324969
 20
-1.357743519462627
 30
0.0
 10
139.3099476114767
 20
-1.566617722724975
 30
0.0
 10
139.3783930861347
 20
-1.757924837516389
 30
0.0
 10
139.4623939628894
 20
-1.93099048670854
 30
0.0
 10
139.5577101052827
 20
-2.087643839553183
 30
0.0
 10
139.6652072246898
 20
-2.227020478459945
 30
0.0
 10
139.7866602275498
 20
-2.347126816158541
 30
0.0
 10
139.9163653761928
 20
-2.452500912106996
 30
0.0
 10
140.0524769763302
 20
-2.545262332453997
 30
0.0
 10
140.1943630327829
 20
-2.626992431495102
 30
0.0
 10
140.2939923486445
 20
-2.670395881962656
 30
0.0
 10
140.3438641238987
 20
-2.692122490323472
 30
0.0
  0
SPLINE
  5
113
330
1F
100
AcDbEntity
  8
0
  6
Continuous
 62
     7
370
    25
100
AcDbSpline
210
0.0
220
0.0
230
1.0
 70
     8
 71
     3
 72
    19
 73
    15
 74
     0
 42
0.00000001
 43
0.00000001
 40
0.0
 40
0.0
 40
0.0
 40
0.0
 40
0.0970757610827817
 40
0.1854388791834262
 40
0.2661010365472483
 40
0.3393879040839898
 40
0.4098941005134784
 40
0.4831012368395332
 40
0.5604490135140517
 40
0.6427315099378509
 40
0.7286254952958205
 40
0.8160988114172049
 40
0.906094529947956
 40
1.0
 40
1.0
 40
1.0
 40
1.0
 10
140.4242269801849
 20
0.6944361858500719
 30
0.0
 10
140.3571390607777
 20
0.6734721773167425
 30
0.0
 10
140.2289844272948
 20
0.6334257001915485
 30
0.0
 10
140.0499159019061
 20
0.5615258889805317
 30
0.0
 10
139.8944529350325
 20
0.4798074305489857
 30
0.0
 10
139.7578529419497
 20
0.3910092517488492
 30
0.0
 10
139.6404652099613
 20
0.2857449886448398
 30
0.0
 10
139.5364832575421
 20
0.1634517045844797
 30
0.0
 10
139.4461696076038
 20
0.0205559890318846
 30
0.0
 10
139.3688458664302
 20
-0.1398202389941043
 30
0.0
 10
139.3057037832076
 20
-0.3141756344900307
 30
0.0
 10
139.2607077422074
 20
-0.4997484066795927
 30
0.0
 10
139.2327237810437
 20
-0.6946485342354259
 30
0.0
 10
139.2294902458155
 20
-0.8278342468007075
 30
0.0
 10
139.2278391056143
 20
-0.8958428716445235
 30
0.0
  0
SPLINE
  5
115
330
1F
100
AcDbEntity
  8
0
  6
Continuous
 62
     7
370
    25
100
AcDbSpline
210
0.0
220
0.0
230
1.0
 70
     8
 71
     3
 72
    19
 73
    15
 74
     0
 42
0.00000001
 43
0.00000001
 40
0.0
 40
0.0
 40
0.0
 40
0.0
 40
0.0962529962395437
 40
0.1881126202290572
 40
0.2770145135766613
 40
0.3631816128668827
 40
0.4459714897768688
 40
0.5241285661351863
 40
0.5989441554995628
 40
0.6716485438640991
 40
0.746226081407474
 40
0.8249321813787455
 40
0.909421262141945
 40
1.0
 40
1.0
 40
1.0
 40
1.0
 10
138.5758812856022
 20
-0.8811285458456409
 30
0.0
 10
138.5781079468233
 20
-0.7813925931591356
 30
0.0
 10
138.5824596355291
 20
-0.5864730361179387
 30
0.0
 10
138.6213252667303
 20
-0.3016499229792221
 30
0.0
 10
138.681324457301
 20
-0.0314165277127242
 30
0.0
 10
138.767075458621
 20
0.2221323471159875
 30
0.0
 10
138.8752796789537
 20
0.4545703005050821
 30
0.0
 10
139.0016446335936
 20
0.6642360578315264
 30
0.0
 10
139.1498468848785
 20
0.8461018094960703
 30
0.0
 10
139.320084046054
 20
1.001903519866134
 30
0.0
 10
139.5130505991766
 20
1.135602079141277
 30
0.0
 10
139.7318954288776
 20
1.249504782134179
 30
0.0
 10
139.9758528976568
 20
1.348737757288465
 30
0.0
 10
140.1505018326196
 20
1.397916530760514
 30
0.0
 10
140.2408638433065
 20
1.423361248502399
 30
0.0
  0
SPLINE
  5
116
330
1F
100
AcDbEntity
  8
0
  6
Continuous
 62
     7
370
    25
100
AcDbSpline
210
0.0
220
0.0
230
1.0
 70
     8
 71
     3
 72
    31
 73
    27
 74
     0
 42
0.00000001
 43
0.00000001
 40
0.0
 40
0.0
 40
0.0
 40
0.0
 40
0.0441648707663393
 40
0.0877097312701488
 40
0.1310305076389554
 40
0.1737410967710496
 40
0.2162117448983772
 40
0.2586444213019017
 40
0.301425450668837
 40
0.3441474319497326
 40
0.3862931475288528
 40
0.4276256579530262
 40
0.4676816294643631
 40
0.5073561359058175
 40
0.5465958992436456
 40
0.5856585420613055
 40
0.6247958596396749
 40
0.6642613006221076
 40
0.7040804304679377
 40
0.7443393793863254
 40
0.7848956407767115
 40
0.8259957058713985
 40
0.867980185416709
 40
0.9108123712842549
 40
0.9548489657921799
 40
1.0
 40
1.0
 40
1.0
 40
1.0
 10
141.500636505934
 20
-3.699487871939266
 30
0.0
 10
141.4330729528793
 20
-3.698313609756893
 30
0.0
 10
141.2988943403475
 20
-3.695981570317637
 30
0.0
 10
141.0989484899375
 20
-3.679908941385837
 30
0.0
 10
140.9025020652136
 20
-3.652741283895645
 30
0.0
 10
140.7094494184129
 20
-3.615219333751669
 30
0.0
 10
140.5199333007328
 20
-3.567924115570087
 30
0.0
 10
140.333672985158
 20
-3.508684838068773
 30
0.0
 10
140.1508484973354
 20
-3.438571430596551
 30
0.0
 10
139.9725005529663
 20
-3.358803552459218
 30
0.0
 10
139.8015455383682
 20
-3.268717767389538
 30
0.0
 10
139.6414815550534
 20
-3.16801754966291
 30
0.0
 10
139.491220847662
 20
-3.059340610665267
 30
0.0
 10
139.3550834120806
 20
-2.93827595936592
 30
0.0
 10
139.2269118010904
 20
-2.810965491262124
 30
0.0
 10
139.1127709083506
 20
-2.671877350820461
 30
0.0
 10
139.0093162939857
 20
-2.524388068397443
 30
0.0
 10
138.9176356099129
 20
-2.367894429932498
 30
0.0
 10
138.8376265399598
 20
-2.203307660905224
 30
0.0
 10
138.7671617555676
 20
-2.032594329379923
 30
0.0
 10
138.7086892072066
 20
-1.855366302794038
 30
0.0
 10
138.659356990491
 20
-1.67263958205638
 30
0.0
 10
138.6227023855733
 20
-1.483401607970221
 30
0.0
 10
138.5951291984331
 20
-1.288140167213423
 30
0.0
 10
138.5793802110193
 20
-1.086634627578939
 30
0.0
 10
138.5770572694759
 20
-0.9501988486484505
 30
0.0
 10
138.5758812856023
 20
-0.881128545845641
 30
0.0
  0
SPLINE
  5
117
330
1F
100
AcDbEntity
  8
0
  6
Continuous
 62
     7
370
    25
100
AcDbSpline
210
0.0
220
0.0
230
1.0
 70
     8
 71
     3
 72
    31
 73
    27
 74
     0
 42
0.00000001
 43
0.00000001
 40
0.0
 40
0.0
 40
0.0
 40
0.0
 40
0.0446999315316539
 40
0.088797966513099
 40
0.1319149287336229
 40
0.1742293627589083
 40
0.216385794833431
 40
0.2583073783821363
 40
0.299933538062107
 40
0.3415604297657437
 40
0.3826835736329753
 40
0.4230800607012379
 40
0.462984759314449
 40
0.5026412767282108
 40
0.5419489483112813
 40
0.5816599838159894
 40
0.6217140702411038
 40
0.6622859315976676
 40
0.7033608832504616
 40
0.7443437418136667
 40
0.7856413877225513
 40
0.8270186450461442
 40
0.8693330790714343
 40
0.9119610453251683
 40
0.9555468405805408
 40
1.0
 40
1.0
 40
1.0
 40
1.0
 10
144.3710619079313
 20
-0.8188756290042156
 30
0.0
 10
144.3700128526449
 20
-0.8872038091663724
 30
0.0
 10
144.3679288678825
 20
-1.022940112244233
 30
0.0
 10
144.3501052496966
 20
-1.223905699104498
 30
0.0
 10
144.3236099915541
 20
-1.420174487263718
 30
0.0
 10
144.2846935356134
 20
-1.611394068219164
 30
0.0
 10
144.2349948770132
 20
-1.798166320646753
 30
0.0
 10
144.1740954375428
 20
-1.980536831331697
 30
0.0
 10
144.1009573963611
 20
-2.157438347858974
 30
0.0
 10
144.019053031665
 20
-2.3290886455685
 30
0.0
 10
143.9265784254731
 20
-2.493207859851508
 30
0.0
 10
143.8233395508617
 20
-2.647638497214936
 30
0.0
 10
143.709843441144
 20
-2.791843464971462
 30
0.0
 10
143.5865489951437
 20
-2.925554544775531
 30
0.0
 10
143.452874037862
 20
-3.048376355356329
 30
0.0
 10
143.3105552678294
 20
-3.16210550502128
 30
0.0
 10
143.1569952369107
 20
-3.263696494770797
 30
0.0
 10
142.9950167615093
 20
-3.355395282766195
 30
0.0
 10
142.8258422031842
 20
-3.436353011959522
 30
0.0
 10
142.6509307130397
 20
-3.507087742682482
 30
0.0
 10
142.4709902628981
 20
-3.565267121415351
 30
0.0
 10
142.2863494695088
 20
-3.614582646898963
 30
0.0
 10
142.0969837994076
 20
-3.652819880795465
 30
0.0
 10
141.9023489510648
 20
-3.680094430165969
 30
0.0
 10
141.7031315170653
 20
-3.695988993090628
 30
0.0
 10
141.5685767231537
 20
-3.69831394381297
 30
0.0
 10
141.500636505934
 20
-3.699487871939266
 30
0.0
  0
SPLINE
  5
118
330
1F
100
AcDbEntity
  8
0
  6
Continuous
 62
     7
370
    25
100
AcDbSpline
210
0.0
220
0.0
230
1.0
 70
     8
 71
     3
 72
    15
 73
    11
 74
     0
 42
0.00000001
 43
0.00000001
 40
0.0
 40
0.0
 40
0.0
 40
0.0
 40
0.1357979985202117
 40
0.2667730428626869
 40
0.3937650751861898
 40
0.5179750886184873
 40
0.6396854728275135
 40
0.7598118129707269
 40
0.8797468269894234
 40
1.0
 40
1.0
 40
1.0
 40
1.0
 10
143.4915979736442
 20
1.516174688156888
 30
0.0
 10
143.5618412722589
 20
1.424849045966718
 30
0.0
 10
143.6998331330841
 20
1.245441251124775
 30
0.0
 10
143.8765736100596
 20
0.9616525986789011
 30
0.0
 10
144.0305320036306
 20
0.6761481341654229
 30
0.0
 10
144.1535754893358
 20
0.384372891034968
 30
0.0
 10
144.2507042875202
 20
0.0891634304186033
 30
0.0
 10
144.3197164764094
 20
-0.2100671188158031
 30
0.0
 10
144.3635584487632
 20
-0.5130999851855954
 30
0.0
 10
144.3685585471255
 20
-0.7168604457453475
 30
0.0
 10
144.3710619079313
 20
-0.8188756290042156
 30
0.0
  0
SPLINE
  5
11F
330
1F
100
AcDbEntity
  8
0
  6
Continuous
 62
     7
370
    25
100
AcDbSpline
210
0.0
220
0.0
230
1.0
 70
     8
 71
     3
 72
    23
 73
    19
 74
     0
 42
0.00000001
 43
0.00000001
 40
0.0
 40
0.0
 40
0.0
 40
0.0
 40
0.0580459117014041
 40
0.1142085110866312
 40
0.1688853714773059
 40
0.2226179977480977
 40
0.27564098720726
 40
0.3287128123382389
 40
0.3816446095098473
 40
0.4359372358193013
 40
0.4912456014021859
 40
0.5489721916418725
 40
0.6103938667198644
 40
0.6763535312024374
 40
0.7474188598102829
 40
0.8248729933786442
 40
0.9090293721355698
 40
1.0
 40
1.0
 40
1.0
 40
1.0
 10
130.2175865149457
 20
0.39335844258063
 30
0.0
 10
130.2761309278472
 20
0.3921107553092084
 30
0.0
 10
130.3913202673532
 20
0.3896558622531077
 30
0.0
 10
130.5605500349373
 20
0.3685760873295632
 30
0.0
 10
130.7233559374143
 20
0.3353287191770377
 30
0.0
 10
130.878623937122
 20
0.2857357817146319
 30
0.0
 10
131.0281690183354
 20
0.2251070112386466
 30
0.0
 10
131.1694699930586
 20
0.148701020849266
 30
0.0
 10
131.3044421298675
 20
0.0594793883200949
 30
0.0
 10
131.4327313827074
 20
-0.0428817301757995
 30
0.0
 10
131.551683554604
 20
-0.1634039177051361
 30
0.0
 10
131.652747174716
 20
-0.3083482971322227
 30
0.0
 10
131.7370365006873
 20
-0.4753231932658048
 30
0.0
 10
131.8077007881984
 20
-0.6629958817038928
 30
0.0
 10
131.8592390465043
 20
-0.8733582534129014
 30
0.0
 10
131.8994141313382
 20
-1.104674695324242
 30
0.0
 10
131.92099920499
 20
-1.358748239671398
 30
0.0
 10
131.9240140842384
 20
-1.535313789938344
 30
0.0
 10
131.9255801788314
 20
-1.62703167672745
 30
0.0
  0
SPLINE
  5
120
330
1F
100
AcDbEntity
  8
0
  6
Continuous
 62
     7
370
    25
100
AcDbSpline
210
0.0
220
0.0
230
1.0
 70
     8
 71
     3
 72
    19
 73
    15
 74
     0
 42
0.00000001
 43
0.00000001
 40
0.0
 40
0.0
 40
0.0
 40
0.0
 40
0.0892469970140226
 40
0.173143666524389
 40
0.2526174257439109
 40
0.3289195329662367
 40
0.4046580426516508
 40
0.4814727296742677
 40
0.5618479822848044
 40
0.6456111230529136
 40
0.7322777404363493
 40
0.8191697204653293
 40
0.9080700473560734
 40
1.0
 40
1.0
 40
1.0
 40
1.0
 10
128.6465492681112
 20
-0.8947110004292272
 30
0.0
 10
128.6589446918485
 20
-0.829416428667441
 30
0.0
 10
128.6829924378322
 20
-0.7027416727963927
 30
0.0
 10
128.7438491307356
 20
-0.5245225292250292
 30
0.0
 10
128.8147779878663
 20
-0.3605713480789592
 30
0.0
 10
128.906183359284
 20
-0.2139978576843869
 30
0.0
 10
129.0128996642823
 20
-0.0807454908718009
 30
0.0
 10
129.1409751697616
 20
0.0367959002685688
 30
0.0
 10
129.2873254835012
 20
0.1410064063789626
 30
0.0
 10
129.4518986648073
 20
0.2296119584992654
 30
0.0
 10
129.6289751730715
 20
0.3033639604115282
 30
0.0
 10
129.8176240787073
 20
0.3550197929303637
 30
0.0
 10
130.0145664730023
 20
0.3881055379301948
 30
0.0
 10
130.1491615004466
 20
0.3915880258600525
 30
0.0
 10
130.2175865149457
 20
0.39335844258063
 30
0.0
  0
SPLINE
  5
121
330
1F
100
AcDbEntity
  8
0
  6
Continuous
 62
     7
370
    25
100
AcDbSpline
210
0.0
220
0.0
230
1.0
 70
     8
 71
     3
 72
    11
 73
     7
 74
     0
 42
0.00000001
 43
0.00000001
 40
0.0
 40
0.0
 40
0.0
 40
0.0
 40
0.3071626301099387
 40
0.57685285990968
 40
0.8066330493509284
 40
1.0
 40
1.0
 40
1.0
 40
1.0
 10
128.5933513209922
 20
-1.732295699750224
 30
0.0
 10
128.593841511495
 20
-1.64625331542066
 30
0.0
 10
128.5947620915581
 20
-1.484665314119223
 30
0.0
 10
128.605543267778
 20
-1.259009746370414
 30
0.0
 10
128.6188813673262
 20
-1.065235645597506
 30
0.0
 10
128.6378713519273
 20
-0.9481953102641565
 30
0.0
 10
128.6465492681113
 20
-0.8947110004292274
 30
0.0
  0
CIRCLE
  5
12E
330
1F
100
AcDbEntity
  8
0
  6
Continuous
 62
     7
370
    25
100
AcDbCircle
 10
152.5
 20
-29.67
 30
0.0
 40
1.219200000000001
  0
CIRCLE
  5
12F
330
1F
100
AcDbEntity
  8
0
  6
Continuous
 62
     7
370
    25
100
AcDbCircle
 10
152.5
 20
-11.67
 30
0.0
 40
1.219200000000001
  0
CIRCLE
  5
14E
330
1F
100
AcDbEntity
  8
0
  6
Continuous
 62
     7
370
    25
100
AcDbCircle
 10
152.5
 20
29.67
 30
0.0
 40
1.219200000000001
  0
CIRCLE
  5
14F
330
1F
100
AcDbEntity
  8
0
  6
Continuous
 62
     7
370
    25
100
AcDbCircle
 10
152.5
 20
11.67
 30
0.0
 40
1.219200000000001
  0
SPLINE
  5
153
330
1F
100
AcDbEntity
  8
0
  6
Continuous
 62
     7
370
    25
100
AcDbSpline
210
0.0
220
0.0
230
1.0
 70
     8
 71
     3
 72
    23
 73
    19
 74
     0
 42
0.00000001
 43
0.00000001
 40
0.0
 40
0.0
 40
0.0
 40
0.0
 40
0.0713389168091826
 40
0.1375574976092163
 40
0.1985787258007748
 40
0.2557144494981493
 40
0.3079236573990009
 40
0.3553019381675093
 40
0.3985459590843344
 40
0.4378592834967287
 40
0.5105170939600592
 40
0.5810303591269651
 40
0.6504756350771512
 40
0.7210278901641874
 40
0.7914240560000878
 40
0.8603690295573637
 40
0.9290978004701071
 40
1.0
 40
1.0
 40
1.0
 40
1.0
 10
99.83752875780448
 20
2.371337528948405
 30
0.0
 10
99.84463489624432
 20
2.396960310104415
 30
0.0
 10
99.85833713150625
 20
2.446366802594859
 30
0.0
 10
99.8763474014586
 20
2.518172210971059
 30
0.0
 10
99.8904321578244
 20
2.585452231527397
 30
0.0
 10
99.9012261379241
 20
2.648038682501283
 30
0.0
 10
99.90901526207577
 20
2.705953060046628
 30
0.0
 10
99.91354326515557
 20
2.75900852410068
 30
0.0
 10
99.91525218358441
 20
2.807463131083358
 30
0.0
 10
99.91169530537191
 20
2.865267498095042
 30
0.0
 10
99.90068374637778
 20
2.932610502069128
 30
0.0
 10
99.87650677067893
 20
3.008416074433095
 30
0.0
 10
99.84091032715685
 20
3.078696820018094
 30
0.0
 10
99.79519085042865
 20
3.14276892162219
 30
0.0
 10
99.74058536284957
 20
3.199190554227044
 30
0.0
 10
99.67907216140414
 20
3.246813150648946
 30
0.0
 10
99.61064395674617
 20
3.284663118113759
 30
0.0
 10
99.5611755872318
 20
3.301111384467404
 30
0.0
 10
99.53605640203526
 20
3.309463530550969
 30
0.0
  0
SPLINE
  5
154
330
1F
100
AcDbEntity
  8
0
  6
Continuous
 62
     7
370
    25
100
AcDbSpline
210
0.0
220
0.0
230
1.0
 70
     8
 71
     3
 72
    23
 73
    19
 74
     0
 42
0.00000001
 43
0.00000001
 40
0.0
 40
0.0
 40
0.0
 40
0.0
 40
0.0591902696526695
 40
0.1152312099926109
 40
0.1693422900642653
 40
0.2221611624636234
 40
0.2744842076335051
 40
0.3262284886734939
 40
0.3787494627553044
 40
0.4324426903954899
 40
0.4881075584072512
 40
0.5469676925118984
 40
0.6097434151410133
 40
0.6766408978997117
 40
0.7492071499230604
 40
0.8269327217934462
 40
0.9104497221105149
 40
1.0
 40
1.0
 40
1.0
 40
1.0
 10
99.53605640203526
 20
3.309463530550969
 30
0.0
 10
99.51895290199431
 20
3.31382320594204
 30
0.0
 10
99.48565592571094
 20
3.322310592018094
 30
0.0
 10
99.43557058787812
 20
3.329243372934328
 30
0.0
 10
99.38696838407228
 20
3.331466435188399
 30
0.0
 10
99.33952872568206
 20
3.327637098200465
 30
0.0
 10
99.29365694642797
 20
3.318016058162157
 30
0.0
 10
99.24933632727719
 20
3.303146517673438
 30
0.0
 10
99.20642592664484
 20
3.283515430566819
 30
0.0
 10
99.16551040149014
 20
3.257722878817043
 30
0.0
 10
99.12631977796934
 20
3.226281733179559
 30
0.0
 10
99.08939648091287
 20
3.18833478776783
 30
0.0
 10
99.05431831467625
 20
3.14432569652203
 30
0.0
 10
99.0218666945571
 20
3.093437992621414
 30
0.0
 10
98.99141479435679
 20
3.036251815869313
 30
0.0
 10
98.96369869627475
 20
2.972272145103059
 30
0.0
 10
98.93749921030305
 20
2.902234622438492
 30
0.0
 10
98.92245270113577
 20
2.852893016985108
 30
0.0
 10
98.91466717927884
 20
2.827362168371482
 30
0.0
  0
SPLINE
  5
15B
330
1F
100
AcDbEntity
  8
0
  6
Continuous
 62
     7
370
    25
100
AcDbSpline
210
0.0
220
0.0
230
1.0
 70
     8
 71
     3
 72
    15
 73
    11
 74
     0
 42
0.00000001
 43
0.00000001
 40
0.0
 40
0.0
 40
0.0
 40
0.0
 40
0.0803278514321371
 40
0.1723090357504273
 40
0.2771800723644519
 40
0.395494968804992
 40
0.527314946796907
 40
0.6719804079193976
 40
0.8291764288684467
 40
1.0
 40
1.0
 40
1.0
 40
1.0
 10
100.3342585254327
 20
2.810189692409944
 30
0.0
 10
100.3271204973617
 20
2.796904742424141
 30
0.0
 10
100.3118089122497
 20
2.768407566398211
 30
0.0
 10
100.2903278497792
 20
2.720980471875308
 30
0.0
 10
100.2682387754452
 20
2.666094989570882
 30
0.0
 10
100.2448251398255
 20
2.603706592042277
 30
0.0
 10
100.2197480509075
 20
2.533958426543256
 30
0.0
 10
100.1955370804817
 20
2.456225413013005
 30
0.0
 10
100.1691901295896
 20
2.371505183590633
 30
0.0
 10
100.151848343836
 20
2.31242590489524
 30
0.0
 10
100.1428172193429
 20
2.281659043371482
 30
0.0
  0
SPLINE
  5
15C
330
1F
100
AcDbEntity
  8
0
  6
Continuous
 62
     7
370
    25
100
AcDbSpline
210
0.0
220
0.0
230
1.0
 70
     8
 71
     3
 72
    15
 73
    11
 74
     0
 42
0.00000001
 43
0.00000001
 40
0.0
 40
0.0
 40
0.0
 40
0.0
 40
0.1215511797854155
 40
0.2384312861525926
 40
0.3547042316962294
 40
0.4754294170624909
 40
0.5990674250312966
 40
0.7259214726356449
 40
0.8584201049156451
 40
0.9999999999999999
 40
0.9999999999999999
 40
0.9999999999999999
 40
0.9999999999999999
 10
101.0370580045994
 20
3.145370982474047
 30
0.0
 10
101.0037580524711
 20
3.153530299483781
 30
0.0
 10
100.9384378274535
 20
3.169535380242293
 30
0.0
 10
100.837881098845
 20
3.169731121028152
 30
0.0
 10
100.739222556567
 20
3.153402607285535
 30
0.0
 10
100.6440284072085
 20
3.116854711134695
 30
0.0
 10
100.5529491362706
 20
3.064870991087231
 30
0.0
 10
100.4706196700314
 20
2.994716166508522
 30
0.0
 10
100.3955045236465
 20
2.909958046647147
 30
0.0
 10
100.3551198902773
 20
2.844172386763708
 30
0.0
 10
100.3342585254327
 20
2.810189692409944
 30
0.0
  0
SPLINE
  5
15D
330
1F
100
AcDbEntity
  8
0
  6
Continuous
 62
     7
370
    25
100
AcDbSpline
210
0.0
220
0.0
230
1.0
 70
     8
 71
     3
 72
    23
 73
    19
 74
     0
 42
0.00000001
 43
0.00000001
 40
0.0
 40
0.0
 40
0.0
 40
0.0
 40
0.0706617103333318
 40
0.1363607360325013
 40
0.1976905968575975
 40
0.2536866929767155
 40
0.3055813054207799
 40
0.3528936147973775
 40
0.3958051780047731
 40
0.4345185969400327
 40
0.5071084560511165
 40
0.5775070465412063
 40
0.648036299802246
 40
0.720244648198117
 40
0.791955201964649
 40
0.8615832629709786
 40
0.9302501447560162
 40
1.0
 40
1.0
 40
1.0
 40
1.0
 10
101.3671511536378
 20
2.151275429589431
 30
0.0
 10
101.3747375073516
 20
2.178155609098112
 30
0.0
 10
101.3893774130564
 20
2.230028130230119
 30
0.0
 10
101.4079107291084
 20
2.305952771185262
 30
0.0
 10
101.4225696050101
 20
2.376810439985317
 30
0.0
 10
101.433419723359
 20
2.442821765166678
 30
0.0
 10
101.4413112071652
 20
2.503673870674547
 30
0.0
 10
101.4453176279471
 20
2.559745220410856
 30
0.0
 10
101.4453333631952
 20
2.610747612131974
 30
0.0
 10
101.4413287236806
 20
2.671611936025736
 30
0.0
 10
101.427930776975
 20
2.742510060088425
 30
0.0
 10
101.3999936902117
 20
2.822385080602699
 30
0.0
 10
101.3618349568487
 20
2.897885822321222
 30
0.0
 10
101.3112536359723
 20
2.966227417944545
 30
0.0
 10
101.2536545326552
 20
3.028339925395912
 30
0.0
 10
101.1872162526994
 20
3.078606012659328
 30
0.0
 10
101.11530908679
 20
3.11938818889891
 30
0.0
 10
101.0632773974226
 20
3.13666499333856
 30
0.0
 10
101.0370580045993
 20
3.145370982474046
 30
0.0
  0
SPLINE
  5
161
330
1F
100
AcDbEntity
  8
0
  6
Continuous
 62
     7
370
    25
100
AcDbSpline
210
0.0
220
0.0
230
1.0
 70
     8
 71
     3
 72
    15
 73
    11
 74
     0
 42
0.00000001
 43
0.00000001
 40
0.0
 40
0.0
 40
0.0
 40
0.0
 40
0.0763829976036969
 40
0.1659855054655286
 40
0.2707148802617348
 40
0.3888240826834106
 40
0.5206018700426661
 40
0.6660294782576529
 40
0.8252434598020209
 40
1.0
 40
1.0
 40
1.0
 40
1.0
 10
129.2951114744774
 20
-1.011293735604987
 30
0.0
 10
129.2911539784479
 20
-1.027478350792747
 30
0.0
 10
129.2825540674801
 20
-1.062648632360426
 30
0.0
 10
129.2727930389029
 20
-1.120907928409456
 30
0.0
 10
129.2635502118677
 20
-1.188427383028313
 30
0.0
 10
129.2574180263296
 20
-1.265536119816155
 30
0.0
 10
129.2513279858277
 20
-1.351530926381229
 30
0.0
 10
129.2485206288488
 20
-1.446674699589228
 30
0.0
 10
129.246095872848
 20
-1.551184174479038
 30
0.0
 10
129.2455793969929
 20
-1.624011418988734
 30
0.0
 10
129.2453091410042
 20
-1.662119684401708
 30
0.0
  0
SPLINE
  5
162
330
1F
100
AcDbEntity
  8
0
  6
Continuous
 62
     7
370
    25
100
AcDbSpline
210
0.0
220
0.0
230
1.0
 70
     8
 71
     3
 72
    23
 73
    19
 74
     0
 42
0.00000001
 43
0.00000001
 40
0.0
 40
0.0
 40
0.0
 40
0.0
 40
0.0877633075272333
 40
0.169067878495371
 40
0.2448922312129093
 40
0.3143473985818223
 40
0.3792728257377099
 40
0.4395252648020417
 40
0.4961609466856046
 40
0.5498287554218985
 40
0.6024136659231757
 40
0.654687085253345
 40
0.7073566281760809
 40
0.7611142691407591
 40
0.8167949123405511
 40
0.874623874499883
 40
0.9359841955105442
 40
1.0
 40
1.0
 40
1.0
 40
1.0
 10
131.2736223588194
 20
-1.648537229818124
 30
0.0
 10
131.2727100770756
 20
-1.594185646203974
 30
0.0
 10
131.2709526508417
 20
-1.489482357398949
 30
0.0
 10
131.2587816557915
 20
-1.338172238770904
 30
0.0
 10
131.2374759131481
 20
-1.19937346590264
 30
0.0
 10
131.208477159617
 20
-1.072291096065653
 30
0.0
 10
131.1700121671481
 20
-0.9578676869623383
 30
0.0
 10
131.1240264641987
 20
-0.854822660853608
 30
0.0
 10
131.0683020206973
 20
-0.7646973498808217
 30
0.0
 10
131.004023850204
 20
-0.6865595336690105
 30
0.0
 10
130.9319741676253
 20
-0.6195115840626891
 30
0.0
 10
130.8534056864707
 20
-0.5613583972026371
 30
0.0
 10
130.7679318937204
 20
-0.5123297955875891
 30
0.0
 10
130.6753864088668
 20
-0.4730471805977238
 30
0.0
 10
130.5767924701046
 20
-0.4405817598618899
 30
0.0
 10
130.4702777865025
 20
-0.4200578023514824
 30
0.0
 10
130.3575680499298
 20
-0.4058462513207774
 30
0.0
 10
130.2798870740409
 20
-0.4042790767571733
 30
0.0
 10
130.2402239392517
 20
-0.403478892989615
 30
0.0
  0
SPLINE
  5
163
330
1F
100
AcDbEntity
  8
0
  6
Continuous
 62
     7
370
    25
100
AcDbSpline
210
0.0
220
0.0
230
1.0
 70
     8
 71
     3
 72
    15
 73
    11
 74
     0
 42
0.00000001
 43
0.00000001
 40
0.0
 40
0.0
 40
0.0
 40
0.0
 40
0.1429314964367111
 40
0.276951336659768
 40
0.4055114005890395
 40
0.5319706910769352
 40
0.6536539204296582
 40
0.7699043588125981
 40
0.8837344031297928
 40
0.9999999999999999
 40
0.9999999999999999
 40
0.9999999999999999
 40
0.9999999999999999
 10
130.2402239392517
 20
-0.403478892989615
 30
0.0
 10
130.1827072911753
 20
-0.4051690194164854
 30
0.0
 10
130.0712601086993
 20
-0.4084438943370945
 30
0.0
 10
129.9108584446759
 20
-0.4413657607089075
 30
0.0
 10
129.7627664263432
 20
-0.493135653583179
 30
0.0
 10
129.6294807365626
 20
-0.5665660184010787
 30
0.0
 10
129.5138631957086
 20
-0.6573798387362342
 30
0.0
 10
129.4166953719879
 20
-0.7609397114181866
 30
0.0
 10
129.34219589865
 20
-0.8799665855402169
 30
0.0
 10
129.3109166457212
 20
-0.9672101956188985
 30
0.0
 10
129.2951114744774
 20
-1.011293735604987
 30
0.0
  0
SPLINE
  5
167
330
1F
100
AcDbEntity
  8
0
  6
Continuous
 62
     7
370
    25
100
AcDbSpline
210
0.0
220
0.0
230
1.0
 70
     8
 71
     3
 72
    15
 73
    11
 74
     0
 42
0.00000001
 43
0.00000001
 40
0.0
 40
0.0
 40
0.0
 40
0.0
 40
0.1531481085926368
 40
0.2994334688328993
 40
0.436426351456741
 40
0.5656705729563635
 40
0.686508310287868
 40
0.7992685160630073
 40
0.903394740801343
 40
0.9999999999999999
 40
0.9999999999999999
 40
0.9999999999999999
 40
0.9999999999999999
 10
130.3681253865805
 20
-6.688759751542992
 30
0.0
 10
130.3107464293925
 20
-6.709804823668496
 30
0.0
 10
130.1985597341292
 20
-6.750951913281862
 30
0.0
 10
130.035561936409
 20
-6.812314620447186
 30
0.0
 10
129.8807725375609
 20
-6.868374600891965
 30
0.0
 10
129.73641099585
 20
-6.923346015243869
 30
0.0
 10
129.6003803147819
 20
-6.972969692858835
 30
0.0
 10
129.473599319993
 20
-7.018709108475093
 30
0.0
 10
129.3569492000842
 20
-7.063945004583531
 30
0.0
 10
129.2815812032143
 20
-7.091091702174848
 30
0.0
 10
129.2453091410042
 20
-7.104156487557594
 30
0.0
  0
SPLINE
  5
168
330
1F
100
AcDbEntity
  8
0
  6
Continuous
 62
     7
370
    25
100
AcDbSpline
210
0.0
220
0.0
230
1.0
 70
     8
 71
     3
 72
    11
 73
     7
 74
     0
 42
0.00000001
 43
0.00000001
 40
0.0
 40
0.0
 40
0.0
 40
0.0
 40
0.2472885692345004
 40
0.4965585959218961
 40
0.7463647942382733
 40
1.0
 40
1.0
 40
1.0
 40
1.0
 10
129.2453091410042
 20
-7.104156487557595
 30
0.0
 10
129.3347342963198
 20
-7.125821239863559
 30
0.0
 10
129.5143011469067
 20
-7.169324338366442
 30
0.0
 10
129.7772105389974
 20
-7.259257386942838
 30
0.0
 10
130.0371263432998
 20
-7.363823108528474
 30
0.0
 10
130.2045472662021
 20
-7.447811155798624
 30
0.0
 10
130.2888944015096
 20
-7.490124571974432
 30
0.0
  0
SPLINE
  5
16C
330
1F
100
AcDbEntity
  8
0
  6
Continuous
 62
     7
370
    25
100
AcDbSpline
210
0.0
220
0.0
230
1.0
 70
     8
 71
     3
 72
    19
 73
    15
 74
     0
 42
0.00000001
 43
0.00000001
 40
0.0
 40
0.0
 40
0.0
 40
0.0
 40
0.1288803159631819
 40
0.2409296625180118
 40
0.3380967940571465
 40
0.4203832638821436
 40
0.4943327387154522
 40
0.5660058636907456
 40
0.6367270354595246
 40
0.7090817855809071
 40
0.7818864669148214
 40
0.8536340574945926
 40
0.9261589208996456
 40
0.9999999999999999
 40
0.9999999999999999
 40
0.9999999999999999
 40
0.9999999999999999
 10
141.1112728078712
 20
4.985359963047232
 30
0.0
 10
141.1101006969505
 20
5.061247667059071
 30
0.0
 10
141.1079095455209
 20
5.203112611912731
 30
0.0
 10
141.0887743341636
 20
5.401421875361786
 30
0.0
 10
141.0591982257681
 20
5.570753497783575
 30
0.0
 10
141.0135426952273
 20
5.713439892318894
 30
0.0
 10
140.9526647954889
 20
5.833433158745001
 30
0.0
 10
140.8796581567728
 20
5.938694901861262
 30
0.0
 10
140.7863951256505
 20
6.025166258808267
 30
0.0
 10
140.6814586320438
 20
6.097552840578095
 30
0.0
 10
140.5661148850462
 20
6.153394118910258
 30
0.0
 10
140.4449160986008
 20
6.194603881011889
 30
0.0
 10
140.318557591175
 20
6.220595679499888
 30
0.0
 10
140.232309574344
 20
6.223362894181014
 30
0.0
 10
140.1887977674028
 20
6.224758943799247
 30
0.0
  0
SPLINE
  5
16D
330
1F
100
AcDbEntity
  8
0
  6
Continuous
 62
     7
370
    25
100
AcDbSpline
210
0.0
220
0.0
230
1.0
 70
     8
 71
     3
 72
    23
 73
    19
 74
     0
 42
0.00000001
 43
0.00000001
 40
0.0
 40
0.0
 40
0.0
 40
0.0
 40
0.0603272326790111
 40
0.1181633268525642
 40
0.1741915946005266
 40
0.2288671201359889
 40
0.2834295822545138
 40
0.3378078149372605
 40
0.3926149530011037
 40
0.448450003386886
 40
0.5059514596841008
 40
0.5650462512987564
 40
0.6266439369048288
 40
0.6922233429555562
 40
0.7611243334651913
 40
0.8353052271782856
 40
0.9153231689797059
 40
1.0
 40
1.0
 40
1.0
 40
1.0
 10
140.1887977674028
 20
6.224758943799247
 30
0.0
 10
140.1570800494838
 20
6.223711967253794
 30
0.0
 10
140.0949543576023
 20
6.22166124776521
 30
0.0
 10
140.0038008464911
 20
6.21079627870416
 30
0.0
 10
139.9174181534164
 20
6.190124731890082
 30
0.0
 10
139.835183588702
 20
6.161580140258152
 30
0.0
 10
139.7569186099641
 20
6.125438522346316
 30
0.0
 10
139.6829310376835
 20
6.081026191426211
 30
0.0
 10
139.6135987704183
 20
6.028572312571426
 30
0.0
 10
139.5485804817815
 20
5.968401563731698
 30
0.0
 10
139.4894112149057
 20
5.89933889097103
 30
0.0
 10
139.4383633780763
 20
5.820446333735364
 30
0.0
 10
139.3949830599773
 20
5.732353884196738
 30
0.0
 10
139.360553722086
 20
5.634956951601435
 30
0.0
 10
139.3330158027271
 20
5.528562985541099
 30
0.0
 10
139.3146957269055
 20
5.412566124228023
 30
0.0
 10
139.3014393767995
 20
5.287496900040626
 30
0.0
 10
139.3006729282992
 20
5.200831178308556
 30
0.0
 10
139.3002788633934
 20
5.156272516557327
 30
0.0
  0
SPLINE
  5
171
330
1F
100
AcDbEntity
  8
0
  6
Continuous
 62
     7
370
    25
100
AcDbSpline
210
0.0
220
0.0
230
1.0
 70
     8
 71
     3
 72
    15
 73
    11
 74
     0
 42
0.00000001
 43
0.00000001
 40
0.0
 40
0.0
 40
0.0
 40
0.0
 40
0.1531481085926368
 40
0.2994334688328993
 40
0.4364263514567408
 40
0.5656705729563636
 40
0.6865083102878679
 40
0.7992685160630074
 40
0.9033947408013427
 40
0.9999999999999999
 40
0.9999999999999999
 40
0.9999999999999999
 40
0.9999999999999999
 10
140.4230951089697
 20
10.66056223655463
 30
0.0
 10
140.3657161517816
 20
10.63951716442912
 30
0.0
 10
140.2535294565183
 20
10.59837007481576
 30
0.0
 10
140.0905316587982
 20
10.53700736765044
 30
0.0
 10
139.9357422599501
 20
10.48094738720566
 30
0.0
 10
139.7913807182391
 20
10.42597597285375
 30
0.0
 10
139.655350037171
 20
10.37635229523879
 30
0.0
 10
139.5285690423822
 20
10.33061287962253
 30
0.0
 10
139.4119189224734
 20
10.2853769835141
 30
0.0
 10
139.3365509256036
 20
10.25823028592278
 30
0.0
 10
139.3002788633934
 20
10.24516550054003
 30
0.0
  0
SPLINE
  5
172
330
1F
100
AcDbEntity
  8
0
  6
Continuous
 62
     7
370
    25
100
AcDbSpline
210
0.0
220
0.0
230
1.0
 70
     8
 71
     3
 72
    11
 73
     7
 74
     0
 42
0.00000001
 43
0.00000001
 40
0.0
 40
0.0
 40
0.0
 40
0.0
 40
0.2472885692345004
 40
0.4965585959218961
 40
0.7463647942382736
 40
1.0
 40
1.0
 40
1.0
 40
1.0
 10
139.3002788633934
 20
10.24516550054003
 30
0.0
 10
139.389704018709
 20
10.22350074823406
 30
0.0
 10
139.5692708692959
 20
10.17999764973118
 30
0.0
 10
139.8321802613866
 20
10.09006460115479
 30
0.0
 10
140.092096065689
 20
9.985498879569143
 30
0.0
 10
140.2595169885913
 20
9.901510832298996
 30
0.0
 10
140.3438641238987
 20
9.85919741612319
 30
0.0
  0
SPLINE
  5
176
330
1F
100
AcDbEntity
  8
0
  6
Continuous
 62
     7
370
    25
100
AcDbSpline
210
0.0
220
0.0
230
1.0
 70
     8
 71
     3
 72
    15
 73
    11
 74
     0
 42
0.00000001
 43
0.00000001
 40
0.0
 40
0.0
 40
0.0
 40
0.0
 40
0.1429314964367114
 40
0.2769513366597686
 40
0.4055114005890402
 40
0.5319706910769354
 40
0.6536539204296588
 40
0.7699043588125992
 40
0.8837344031297945
 40
1.0
 40
1.0
 40
1.0
 40
1.0
 10
140.2951936616409
 20
16.94584309510801
 30
0.0
 10
140.2376770135645
 20
16.94415296868113
 30
0.0
 10
140.1262298310884
 20
16.94087809376053
 30
0.0
 10
139.965828167065
 20
16.90795622738871
 30
0.0
 10
139.8177361487325
 20
16.85618633451444
 30
0.0
 10
139.6844504589517
 20
16.78275596969654
 30
0.0
 10
139.5688329180978
 20
16.69194214936139
 30
0.0
 10
139.471665094377
 20
16.58838227667944
 30
0.0
 10
139.3971656210391
 20
16.4693554025574
 30
0.0
 10
139.3658863681104
 20
16.38211179247872
 30
0.0
 10
139.3500811968665
 20
16.33802825249263
 30
0.0
  0
SPLINE
  5
177
330
1F
100
AcDbEntity
  8
0
  6
Continuous
 62
     7
370
    25
100
AcDbSpline
210
0.0
220
0.0
230
1.0
 70
     8
 71
     3
 72
    15
 73
    11
 74
     0
 42
0.00000001
 43
0.00000001
 40
0.0
 40
0.0
 40
0.0
 40
0.0
 40
0.0763829976036999
 40
0.1659855054655314
 40
0.2707148802617347
 40
0.3888240826834102
 40
0.520601870042668
 40
0.6660294782576531
 40
0.825243459802022
 40
1.0
 40
1.0
 40
1.0
 40
1.0
 10
139.3500811968665
 20
16.33802825249263
 30
0.0
 10
139.346123700837
 20
16.32184363730487
 30
0.0
 10
139.3375237898693
 20
16.28667335573719
 30
0.0
 10
139.327762761292
 20
16.22841405968817
 30
0.0
 10
139.3185199342568
 20
16.16089460506931
 30
0.0
 10
139.3123877487187
 20
16.08378586828146
 30
0.0
 10
139.3062977082169
 20
15.9977910617164
 30
0.0
 10
139.3034903512379
 20
15.90264728850839
 30
0.0
 10
139.3010655952371
 20
15.79813781361858
 30
0.0
 10
139.300549119382
 20
15.72531056910889
 30
0.0
 10
139.3002788633933
 20
15.68720230369591
 30
0.0
  0
SPLINE
  5
178
330
1F
100
AcDbEntity
  8
0
  6
Continuous
 62
     7
370
    25
100
AcDbSpline
210
0.0
220
0.0
230
1.0
 70
     8
 71
     3
 72
    23
 73
    19
 74
     0
 42
0.00000001
 43
0.00000001
 40
0.0
 40
0.0
 40
0.0
 40
0.0
 40
0.0877633075272327
 40
0.1690678784953701
 40
0.2448922312129081
 40
0.3143473985818223
 40
0.3792728257377094
 40
0.4395252648020412
 40
0.496160946685604
 40
0.549828755421898
 40
0.602413665923176
 40
0.6546870852533453
 40
0.7073566281760808
 40
0.7611142691407593
 40
0.8167949123405513
 40
0.8746238744998829
 40
0.9359841955105442
 40
1.0
 40
1.0
 40
1.0
 40
1.0
 10
141.3285920812085
 20
15.7007847582795
 30
0.0
 10
141.3276797994647
 20
15.75513634189364
 30
0.0
 10
141.3259223732308
 20
15.85983963069867
 30
0.0
 10
141.3137513781807
 20
16.01114974932672
 30
0.0
 10
141.2924456355372
 20
16.14994852219498
 30
0.0
 10
141.2634468820061
 20
16.27703089203197
 30
0.0
 10
141.2249818895373
 20
16.39145430113528
 30
0.0
 10
141.1789961865879
 20
16.49449932724401
 30
0.0
 10
141.1232717430865
 20
16.5846246382168
 30
0.0
 10
141.0589935725931
 20
16.66276245442861
 30
0.0
 10
140.9869438900145
 20
16.72981040403493
 30
0.0
 10
140.9083754088598
 20
16.78796359089499
 30
0.0
 10
140.8229016161096
 20
16.83699219251003
 30
0.0
 10
140.7303561312559
 20
16.8762748074999
 30
0.0
 10
140.6317621924938
 20
16.90874022823574
 30
0.0
 10
140.5252475088916
 20
16.92926418574614
 30
0.0
 10
140.412537772319
 20
16.94347573677684
 30
0.0
 10
140.33485679643
 20
16.94504291134045
 30
0.0
 10
140.2951936616409
 20
16.94584309510801
 30
0.0
  0
LINE
  5
179
330
1F
100
AcDbEntity
  8
0
  6
Continuous
 62
     7
370
    25
100
AcDbLine
 10
131.5633813899
 20
-11.1245630443
 30
0.0
 11
131.5633813899
 21
-13.8772738399
 31
0.0
  0
LINE
  5
17A
330
1F
100
AcDbEntity
  8
0
  6
Continuous
 62
     7
370
    25
100
AcDbLine
 10
134.2436524278
 20
-11.1245630443
 30
0.0
 11
131.5633813899
 21
-11.1245630443
 31
0.0
  0
LINE
  5
17B
330
1F
100
AcDbEntity
  8
0
  6
Continuous
 62
     7
370
    25
100
AcDbLine
 10
134.2436524278
 20
-10.3277257087
 30
0.0
 11
134.2436524278
 21
-11.1245630443
 31
0.0
  0
LINE
  5
17C
330
1F
100
AcDbEntity
  8
0
  6
Continuous
 62
     7
370
    25
100
AcDbLine
 10
128.593351321
 20
-10.3277257087
 30
0.0
 11
134.2436524278
 21
-10.3277257087
 31
0.0
  0
LINE
  5
17D
330
1F
100
AcDbEntity
  8
0
  6
Continuous
 62
     7
370
    25
100
AcDbLine
 10
128.593351321
 20
-11.1245630443
 30
0.0
 11
128.593351321
 21
-10.3277257087
 31
0.0
  0
LINE
  5
17E
330
1F
100
AcDbEntity
  8
0
  6
Continuous
 62
     7
370
    25
100
AcDbLine
 10
130.9114235699
 20
-11.1245630443
 30
0.0
 11
128.593351321
 21
-11.1245630443
 31
0.0
  0
LINE
  5
17F
330
1F
100
AcDbEntity
  8
0
  6
Continuous
 62
     7
370
    25
100
AcDbLine
 10
130.9114235699
 20
-13.8772738399
 30
0.0
 11
130.9114235699
 21
-11.1245630443
 31
0.0
  0
LINE
  5
180
330
1F
100
AcDbEntity
  8
0
  6
Continuous
 62
     7
370
    25
100
AcDbLine
 10
128.593351321
 20
-13.8772738399
 30
0.0
 11
130.9114235699
 21
-13.8772738399
 31
0.0
  0
LINE
  5
181
330
1F
100
AcDbEntity
  8
0
  6
Continuous
 62
     7
370
    25
100
AcDbLine
 10
128.593351321
 20
-14.6741111755
 30
0.0
 11
128.593351321
 21
-13.8772738399
 31
0.0
  0
LINE
  5
182
330
1F
100
AcDbEntity
  8
0
  6
Continuous
 62
     7
370
    25
100
AcDbLine
 10
134.2436524278
 20
-14.6741111755
 30
0.0
 11
128.593351321
 21
-14.6741111755
 31
0.0
  0
LINE
  5
183
330
1F
100
AcDbEntity
  8
0
  6
Continuous
 62
     7
370
    25
100
AcDbLine
 10
134.2436524278
 20
-13.8772738399
 30
0.0
 11
134.2436524278
 21
-14.6741111755
 31
0.0
  0
LINE
  5
184
330
1F
100
AcDbEntity
  8
0
  6
Continuous
 62
     7
370
    25
100
AcDbLine
 10
131.5633813899
 20
-13.8772738399
 30
0.0
 11
134.2436524278
 21
-13.8772738399
 31
0.0
  0
LINE
  5
185
330
1F
100
AcDbEntity
  8
0
  6
Continuous
 62
     7
370
    25
100
AcDbLine
 10
141.6183511123
 20
22.3063851708
 30
0.0
 11
141.6183511123
 21
19.5536743752
 31
0.0
  0
LINE
  5
186
330
1F
100
AcDbEntity
  8
0
  6
Continuous
 62
     7
370
    25
100
AcDbLine
 10
144.2986221502
 20
22.3063851708
 30
0.0
 11
141.6183511123
 21
22.3063851708
 31
0.0
  0
LINE
  5
187
330
1F
100
AcDbEntity
  8
0
  6
Continuous
 62
     7
370
    25
100
AcDbLine
 10
144.2986221502
 20
23.1032225063
 30
0.0
 11
144.2986221502
 21
22.3063851708
 31
0.0
  0
LINE
  5
188
330
1F
100
AcDbEntity
  8
0
  6
Continuous
 62
     7
370
    25
100
AcDbLine
 10
138.6483210434
 20
23.1032225063
 30
0.0
 11
144.2986221502
 21
23.1032225063
 31
0.0
  0
LINE
  5
189
330
1F
100
AcDbEntity
  8
0
  6
Continuous
 62
     7
370
    25
100
AcDbLine
 10
138.6483210434
 20
22.3063851708
 30
0.0
 11
138.6483210434
 21
23.1032225063
 31
0.0
  0
LINE
  5
18A
330
1F
100
AcDbEntity
  8
0
  6
Continuous
 62
     7
370
    25
100
AcDbLine
 10
140.9663932923
 20
22.3063851708
 30
0.0
 11
138.6483210434
 21
22.3063851708
 31
0.0
  0
LINE
  5
18B
330
1F
100
AcDbEntity
  8
0
  6
Continuous
 62
     7
370
    25
100
AcDbLine
 10
140.9663932923
 20
19.5536743752
 30
0.0
 11
140.9663932923
 21
22.3063851708
 31
0.0
  0
LINE
  5
18C
330
1F
100
AcDbEntity
  8
0
  6
Continuous
 62
     7
370
    25
100
AcDbLine
 10
138.6483210434
 20
19.5536743752
 30
0.0
 11
140.9663932923
 21
19.5536743752
 31
0.0
  0
LINE
  5
18D
330
1F
100
AcDbEntity
  8
0
  6
Continuous
 62
     7
370
    25
100
AcDbLine
 10
138.6483210434
 20
18.7568370396
 30
0.0
 11
138.6483210434
 21
19.5536743752
 31
0.0
  0
LINE
  5
18E
330
1F
100
AcDbEntity
  8
0
  6
Continuous
 62
     7
370
    25
100
AcDbLine
 10
144.2986221502
 20
18.7568370396
 30
0.0
 11
138.6483210434
 21
18.7568370396
 31
0.0
  0
LINE
  5
18F
330
1F
100
AcDbEntity
  8
0
  6
Continuous
 62
     7
370
    25
100
AcDbLine
 10
144.2986221502
 20
19.5536743752
 30
0.0
 11
144.2986221502
 21
18.7568370396
 31
0.0
  0
LINE
  5
190
330
1F
100
AcDbEntity
  8
0
  6
Continuous
 62
     7
370
    25
100
AcDbLine
 10
141.6183511123
 20
19.5536743752
 30
0.0
 11
144.2986221502
 21
19.5536743752
 31
0.0
  0
LINE
  5
191
330
1F
100
AcDbEntity
  8
0
  6
Continuous
 62
     7
370
    25
100
AcDbLine
 10
141.9805499012
 20
15.7222903114
 30
0.0
 11
141.9805499012
 21
14.3380118151
 31
0.0
  0
LINE
  5
192
330
1F
100
AcDbEntity
  8
0
  6
Continuous
 62
     7
370
    25
100
AcDbLine
 10
138.6483210434
 20
13.5411744795
 30
0.0
 11
138.6483210434
 21
15.6170262883
 31
0.0
  0
LINE
  5
193
330
1F
100
AcDbEntity
  8
0
  6
Continuous
 62
     7
370
    25
100
AcDbLine
 10
144.2986221502
 20
13.5411744795
 30
0.0
 11
138.6483210434
 21
13.5411744795
 31
0.0
  0
LINE
  5
194
330
1F
100
AcDbEntity
  8
0
  6
Continuous
 62
     7
370
    25
100
AcDbLine
 10
144.2986221502
 20
14.3380118151
 30
0.0
 11
144.2986221502
 21
13.5411744795
 31
0.0
  0
LINE
  5
195
330
1F
100
AcDbEntity
  8
0
  6
Continuous
 62
     7
370
    25
100
AcDbLine
 10
141.9805499012
 20
14.3380118151
 30
0.0
 11
144.2986221502
 21
14.3380118151
 31
0.0
  0
LINE
  5
196
330
1F
100
AcDbEntity
  8
0
  6
Continuous
 62
     7
370
    25
100
AcDbLine
 10
132.5050982411
 20
-5.8998455145
 30
0.0
 11
132.5050982411
 21
-8.3084674606
 31
0.0
  0
LINE
  5
197
330
1F
100
AcDbEntity
  8
0
  6
Continuous
 62
     7
370
    25
100
AcDbLine
 10
134.2436524278
 20
-5.2569426642
 30
0.0
 11
132.5050982411
 21
-5.8998455145
 31
0.0
  0
LINE
  5
198
330
1F
100
AcDbEntity
  8
0
  6
Continuous
 62
     7
370
    25
100
AcDbLine
 10
134.2436524278
 20
-4.4114348664
 30
0.0
 11
134.2436524278
 21
-5.2569426642
 31
0.0
  0
LINE
  5
199
330
1F
100
AcDbEntity
  8
0
  6
Continuous
 62
     7
370
    25
100
AcDbLine
 10
128.593351321
 20
-6.6548036151
 30
0.0
 11
134.2436524278
 21
-4.4114348664
 31
0.0
  0
LINE
  5
19A
330
1F
100
AcDbEntity
  8
0
  6
Continuous
 62
     7
370
    25
100
AcDbLine
 10
128.593351321
 20
-7.55350936
 30
0.0
 11
128.593351321
 21
-6.6548036151
 31
0.0
  0
LINE
  5
19B
330
1F
100
AcDbEntity
  8
0
  6
Continuous
 62
     7
370
    25
100
AcDbLine
 10
134.2436524278
 20
-9.7968781088
 30
0.0
 11
128.593351321
 21
-7.55350936
 31
0.0
  0
LINE
  5
19C
330
1F
100
AcDbEntity
  8
0
  6
Continuous
 62
     7
370
    25
100
AcDbLine
 10
134.2436524278
 20
-8.9513703109
 30
0.0
 11
134.2436524278
 21
-9.7968781088
 31
0.0
  0
LINE
  5
19D
330
1F
100
AcDbEntity
  8
0
  6
Continuous
 62
     7
370
    25
100
AcDbLine
 10
132.5050982411
 20
-8.3084674606
 30
0.0
 11
134.2436524278
 21
-8.9513703109
 31
0.0
  0
LINE
  5
19E
330
1F
100
AcDbEntity
  8
0
  6
Continuous
 62
     7
370
    25
100
AcDbLine
 10
129.245309141
 20
5.3917017293
 30
0.0
 11
129.245309141
 21
3.5807077849
 31
0.0
  0
LINE
  5
19F
330
1F
100
AcDbEntity
  8
0
  6
Continuous
 62
     7
370
    25
100
AcDbLine
 10
128.593351321
 20
5.3917017293
 30
0.0
 11
129.245309141
 21
5.3917017293
 31
0.0
  0
LINE
  5
1A0
330
1F
100
AcDbEntity
  8
0
  6
Continuous
 62
     7
370
    25
100
AcDbLine
 10
128.593351321
 20
0.9728765048
 30
0.0
 11
128.593351321
 21
5.3917017293
 31
0.0
  0
LINE
  5
1A1
330
1F
100
AcDbEntity
  8
0
  6
Continuous
 62
     7
370
    25
100
AcDbLine
 10
129.245309141
 20
0.9728765048
 30
0.0
 11
128.593351321
 21
0.9728765048
 31
0.0
  0
LINE
  5
1A2
330
1F
100
AcDbEntity
  8
0
  6
Continuous
 62
     7
370
    25
100
AcDbLine
 10
129.245309141
 20
2.7838704493
 30
0.0
 11
129.245309141
 21
0.9728765048
 31
0.0
  0
LINE
  5
1A3
330
1F
100
AcDbEntity
  8
0
  6
Continuous
 62
     7
370
    25
100
AcDbLine
 10
134.2436524278
 20
2.7838704493
 30
0.0
 11
129.245309141
 21
2.7838704493
 31
0.0
  0
LINE
  5
1A4
330
1F
100
AcDbEntity
  8
0
  6
Continuous
 62
     7
370
    25
100
AcDbLine
 10
134.2436524278
 20
3.5807077849
 30
0.0
 11
134.2436524278
 21
2.7838704493
 31
0.0
  0
LINE
  5
1A5
330
1F
100
AcDbEntity
  8
0
  6
Continuous
 62
     7
370
    25
100
AcDbLine
 10
129.245309141
 20
3.5807077849
 30
0.0
 11
134.2436524278
 21
3.5807077849
 31
0.0
  0
LINE
  5
1A6
330
1F
100
AcDbEntity
  8
0
  6
Continuous
 62
     7
370
    25
100
AcDbLine
 10
128.593351321
 20
6.2609788227
 30
0.0
 11
128.593351321
 21
7.0578161583
 31
0.0
  0
LINE
  5
1A7
330
1F
100
AcDbEntity
  8
0
  6
Continuous
 62
     7
370
    25
100
AcDbLine
 10
134.2436524278
 20
6.2609788227
 30
0.0
 11
128.593351321
 21
6.2609788227
 31
0.0
  0
LINE
  5
1A8
330
1F
100
AcDbEntity
  8
0
  6
Continuous
 62
     7
370
    25
100
AcDbLine
 10
134.2436524278
 20
7.0578161583
 30
0.0
 11
134.2436524278
 21
6.2609788227
 31
0.0
  0
LINE
  5
1A9
330
1F
100
AcDbEntity
  8
0
  6
Continuous
 62
     7
370
    25
100
AcDbLine
 10
128.593351321
 20
7.0578161583
 30
0.0
 11
134.2436524278
 21
7.0578161583
 31
0.0
  0
LINE
  5
1AA
330
1F
100
AcDbEntity
  8
0
  6
Continuous
 62
     7
370
    25
100
AcDbLine
 10
141.7632306279
 20
4.2881272944
 30
0.0
 11
141.7632306279
 21
3.4720481482
 31
0.0
  0
LINE
  5
1AB
330
1F
100
AcDbEntity
  8
0
  6
Continuous
 62
     7
370
    25
100
AcDbLine
 10
144.2986221502
 20
6.5711115357
 30
0.0
 11
143.1056298892
 21
5.8670876398
 31
0.0
  0
LINE
  5
1AC
330
1F
100
AcDbEntity
  8
0
  6
Continuous
 62
     7
370
    25
100
AcDbLine
 10
144.2986221502
 20
7.4845316064
 30
0.0
 11
144.2986221502
 21
6.5711115357
 31
0.0
  0
LINE
  5
1AD
330
1F
100
AcDbEntity
  8
0
  6
Continuous
 62
     7
370
    25
100
AcDbLine
 10
142.7389036155
 20
6.5575290811
 30
0.0
 11
144.2986221502
 21
7.4845316064
 31
0.0
  0
LINE
  5
1AE
330
1F
100
AcDbEntity
  8
0
  6
Continuous
 62
     7
370
    25
100
AcDbLine
 10
138.6483210434
 20
2.6752108126
 30
0.0
 11
138.6483210434
 21
5.126843865
 31
0.0
  0
LINE
  5
1AF
330
1F
100
AcDbEntity
  8
0
  6
Continuous
 62
     7
370
    25
100
AcDbLine
 10
144.2986221502
 20
2.6752108126
 30
0.0
 11
138.6483210434
 21
2.6752108126
 31
0.0
  0
LINE
  5
1B0
330
1F
100
AcDbEntity
  8
0
  6
Continuous
 62
     7
370
    25
100
AcDbLine
 10
144.2986221502
 20
3.4720481482
 30
0.0
 11
144.2986221502
 21
2.6752108126
 31
0.0
  0
LINE
  5
1B1
330
1F
100
AcDbEntity
  8
0
  6
Continuous
 62
     7
370
    25
100
AcDbLine
 10
141.7632306279
 20
3.4720481482
 30
0.0
 11
144.2986221502
 21
3.4720481482
 31
0.0
  0
LINE
  5
1B2
330
1F
100
AcDbEntity
  8
0
  6
Continuous
 62
     7
370
    25
100
AcDbLine
 10
101.5738829628
 20
-1.7516001985
 30
0.0
 11
101.5980516326
 21
-2.1039539645
 31
0.0
  0
LINE
  5
1B3
330
1F
100
AcDbEntity
  8
0
  6
Continuous
 62
     7
370
    25
100
AcDbLine
 10
100.500921224
 20
-1.3286484757
 30
0.0
 11
101.5738829628
 21
-1.7516001985
 31
0.0
  0
LINE
  5
1B4
330
1F
100
AcDbEntity
  8
0
  6
Continuous
 62
     7
370
    25
100
AcDbLine
 10
100.4080626503
 20
0.0324292486
 30
0.0
 11
100.500921224
 21
-1.3286484757
 31
0.0
  0
LINE
  5
1B5
330
1F
100
AcDbEntity
  8
0
  6
Continuous
 62
     7
370
    25
100
AcDbLine
 10
101.4136065205
 20
0.5991209554
 30
0.0
 11
100.4080626503
 21
0.0324292486
 31
0.0
  0
LINE
  5
1B6
330
1F
100
AcDbEntity
  8
0
  6
Continuous
 62
     7
370
    25
100
AcDbLine
 10
101.3907098858
 20
0.9381183512
 30
0.0
 11
101.4136065205
 21
0.5991209554
 31
0.0
  0
LINE
  5
1B7
330
1F
100
AcDbEntity
  8
0
  6
Continuous
 62
     7
370
    25
100
AcDbLine
 10
98.3327371294
 20
-0.7492364164
 30
0.0
 11
101.3907098858
 21
0.9381183512
 31
0.0
  0
LINE
  5
1B8
330
1F
100
AcDbEntity
  8
0
  6
Continuous
 62
     7
370
    25
100
AcDbLine
 10
98.3384612881
 20
-0.8268305671
 30
0.0
 11
98.3327371294
 21
-0.7492364164
 31
0.0
  0
LINE
  5
1B9
330
1F
100
AcDbEntity
  8
0
  6
Continuous
 62
     7
370
    25
100
AcDbLine
 10
101.5980516326
 20
-2.1039539645
 30
0.0
 11
98.3384612881
 21
-0.8268305671
 31
0.0
  0
LINE
  5
1BA
330
1F
100
AcDbEntity
  8
0
  6
Continuous
 62
     7
370
    25
100
AcDbLine
 10
104.5372281696
 20
6.8606776175
 30
0.0
 11
104.7490220398
 21
6.6298032185
 31
0.0
  0
LINE
  5
1BB
330
1F
100
AcDbEntity
  8
0
  6
Continuous
 62
     7
370
    25
100
AcDbLine
 10
103.440097761
 20
5.8557697649
 30
0.0
 11
104.5372281696
 21
6.8606776175
 31
0.0
  0
LINE
  5
1BC
330
1F
100
AcDbEntity
  8
0
  6
Continuous
 62
     7
370
    25
100
AcDbLine
 10
102.5999184741
 20
6.7729071848
 30
0.0
 11
103.440097761
 21
5.8557697649
 31
0.0
  0
LINE
  5
1BD
330
1F
100
AcDbEntity
  8
0
  6
Continuous
 62
     7
370
    25
100
AcDbLine
 10
103.6970488827
 20
7.7778150374
 30
0.0
 11
102.5999184741
 21
6.7729071848
 31
0.0
  0
LINE
  5
1BE
330
1F
100
AcDbEntity
  8
0
  6
Continuous
 62
     7
370
    25
100
AcDbLine
 10
103.4871630654
 20
8.0067813835
 30
0.0
 11
103.6970488827
 21
7.7778150374
 31
0.0
  0
LINE
  5
1BF
330
1F
100
AcDbEntity
  8
0
  6
Continuous
 62
     7
370
    25
100
AcDbLine
 10
102.3900326568
 20
7.001873531
 30
0.0
 11
103.4871630654
 21
8.0067813835
 31
0.0
  0
LINE
  5
1C0
330
1F
100
AcDbEntity
  8
0
  6
Continuous
 62
     7
370
    25
100
AcDbLine
 10
101.7196700767
 20
7.7332938034
 30
0.0
 11
102.3900326568
 21
7.001873531
 31
0.0
  0
LINE
  5
1C1
330
1F
100
AcDbEntity
  8
0
  6
Continuous
 62
     7
370
    25
100
AcDbLine
 10
102.8263407497
 20
8.7471059028
 30
0.0
 11
101.7196700767
 21
7.7332938034
 31
0.0
  0
LINE
  5
1C2
330
1F
100
AcDbEntity
  8
0
  6
Continuous
 62
     7
370
    25
100
AcDbLine
 10
102.6145468795
 20
8.9779803018
 30
0.0
 11
102.8263407497
 21
8.7471059028
 31
0.0
  0
LINE
  5
1C3
330
1F
100
AcDbEntity
  8
0
  6
Continuous
 62
     7
370
    25
100
AcDbLine
 10
101.2738217193
 20
7.7491942441
 30
0.0
 11
102.6145468795
 21
8.9779803018
 31
0.0
  0
LINE
  5
1C4
330
1F
100
AcDbEntity
  8
0
  6
Continuous
 62
     7
370
    25
100
AcDbLine
 10
103.417837144
 20
5.4099214076
 30
0.0
 11
101.2738217193
 21
7.7491942441
 31
0.0
  0
LINE
  5
1C5
330
1F
100
AcDbEntity
  8
0
  6
Continuous
 62
     7
370
    25
100
AcDbLine
 10
104.7490220398
 20
6.6298032185
 30
0.0
 11
103.417837144
 21
5.4099214076
 31
0.0
  0
LINE
  5
1C6
330
1F
100
AcDbEntity
  8
0
  6
Continuous
 62
     7
370
    25
100
AcDbLine
 10
102.9893534251
 20
-5.4259576308
 30
0.0
 11
103.2024193305
 21
-5.1982633199
 31
0.0
  0
LINE
  5
1C7
330
1F
100
AcDbEntity
  8
0
  6
Continuous
 62
     7
370
    25
100
AcDbLine
 10
104.0731274635
 20
-6.4404057477
 30
0.0
 11
102.9893534251
 21
-5.4259576308
 31
0.0
  0
LINE
  5
1C8
330
1F
100
AcDbEntity
  8
0
  6
Continuous
 62
     7
370
    25
100
AcDbLine
 10
103.2253159651
 20
-7.3460948503
 30
0.0
 11
104.0731274635
 21
-6.4404057477
 31
0.0
  0
LINE
  5
1C9
330
1F
100
AcDbEntity
  8
0
  6
Continuous
 62
     7
370
    25
100
AcDbLine
 10
102.1415419267
 20
-6.3316467333
 30
0.0
 11
103.2253159651
 21
-7.3460948503
 31
0.0
  0
LINE
  5
1CA
330
1F
100
AcDbEntity
  8
0
  6
Continuous
 62
     7
370
    25
100
AcDbLine
 10
101.9297480565
 20
-6.558069009
 30
0.0
 11
102.1415419267
 21
-6.3316467333
 31
0.0
  0
LINE
  5
1CB
330
1F
100
AcDbEntity
  8
0
  6
Continuous
 62
     7
370
    25
100
AcDbLine
 10
103.0135220949
 20
-7.5725171259
 30
0.0
 11
101.9297480565
 21
-6.558069009
 31
0.0
  0
LINE
  5
1CC
330
1F
100
AcDbEntity
  8
0
  6
Continuous
 62
     7
370
    25
100
AcDbLine
 10
102.3374353562
 20
-8.2950331516
 30
0.0
 11
103.0135220949
 21
-7.5725171259
 31
0.0
  0
LINE
  5
1CD
330
1F
100
AcDbEntity
  8
0
  6
Continuous
 62
     7
370
    25
100
AcDbLine
 10
101.2441210533
 20
-7.2716807878
 30
0.0
 11
102.3374353562
 21
-8.2950331516
 31
0.0
  0
LINE
  5
1CE
330
1F
100
AcDbEntity
  8
0
  6
Continuous
 62
     7
370
    25
100
AcDbLine
 10
101.0310551478
 20
-7.4993750987
 30
0.0
 11
101.2441210533
 21
-7.2716807878
 31
0.0
  0
LINE
  5
1CF
330
1F
100
AcDbEntity
  8
0
  6
Continuous
 62
     7
370
    25
100
AcDbLine
 10
102.3552438497
 20
-8.7389734561
 30
0.0
 11
101.0310551478
 21
-7.4993750987
 31
0.0
  0
LINE
  5
1D0
330
1F
100
AcDbEntity
  8
0
  6
Continuous
 62
     7
370
    25
100
AcDbLine
 10
104.517067768
 20
-6.4289574304
 30
0.0
 11
102.3552438497
 21
-8.7389734561
 31
0.0
  0
LINE
  5
1D1
330
1F
100
AcDbEntity
  8
0
  6
Continuous
 62
     7
370
    25
100
AcDbLine
 10
103.2024193305
 20
-5.1982633199
 30
0.0
 11
104.517067768
 21
-6.4289574304
 31
0.0
  0
LINE
  5
1D2
330
1F
100
AcDbEntity
  8
0
  6
Continuous
 62
     7
370
    25
100
AcDbLine
 10
101.804094849
 20
-2.6003013866
 30
0.0
 11
100.6331863955
 21
-5.5412468995
 31
0.0
  0
LINE
  5
1D3
330
1F
100
AcDbEntity
  8
0
  6
Continuous
 62
     7
370
    25
100
AcDbLine
 10
101.77165795
 20
-2.5373356415
 30
0.0
 11
101.804094849
 21
-2.6003013866
 31
0.0
  0
LINE
  5
1D4
330
1F
100
AcDbEntity
  8
0
  6
Continuous
 62
     7
370
    25
100
AcDbLine
 10
98.9649121567
 20
-3.9798236222
 30
0.0
 11
101.77165795
 21
-2.5373356415
 31
0.0
  0
LINE
  5
1D5
330
1F
100
AcDbEntity
  8
0
  6
Continuous
 62
     7
370
    25
100
AcDbLine
 10
99.1073801055
 20
-4.2564912905
 30
0.0
 11
98.9649121567
 21
-3.9798236222
 31
0.0
  0
LINE
  5
1D6
330
1F
100
AcDbEntity
  8
0
  6
Continuous
 62
     7
370
    25
100
AcDbLine
 10
101.2558476535
 20
-3.1523646879
 30
0.0
 11
99.1073801055
 21
-4.2564912905
 31
0.0
  0
LINE
  5
1D7
330
1F
100
AcDbEntity
  8
0
  6
Continuous
 62
     7
370
    25
100
AcDbLine
 10
100.0658586712
 20
-6.1225670116
 30
0.0
 11
101.2558476535
 21
-3.1523646879
 31
0.0
  0
LINE
  5
1D8
330
1F
100
AcDbEntity
  8
0
  6
Continuous
 62
     7
370
    25
100
AcDbLine
 10
100.0976595526
 20
-6.183624704
 30
0.0
 11
100.0658586712
 21
-6.1225670116
 31
0.0
  0
LINE
  5
1D9
330
1F
100
AcDbEntity
  8
0
  6
Continuous
 62
     7
370
    25
100
AcDbLine
 10
102.9044053458
 20
-4.7411367232
 30
0.0
 11
100.0976595526
 21
-6.183624704
 31
0.0
  0
LINE
  5
1DA
330
1F
100
AcDbEntity
  8
0
  6
Continuous
 62
     7
370
    25
100
AcDbLine
 10
102.7549412032
 20
-4.4511126847
 30
0.0
 11
102.9044053458
 21
-4.7411367232
 31
0.0
  0
LINE
  5
1DB
330
1F
100
AcDbEntity
  8
0
  6
Continuous
 62
     7
370
    25
100
AcDbLine
 10
100.6331863955
 20
-5.5412468995
 30
0.0
 11
102.7549412032
 21
-4.4511126847
 31
0.0
  0
LINE
  5
1DC
330
1F
100
AcDbEntity
  8
0
  6
Continuous
 62
     7
370
    25
100
AcDbLine
 10
98.4312937818
 20
2.2644865674
 30
0.0
 11
98.6030185415
 21
2.8636151732
 31
0.0
  0
LINE
  5
1DD
330
1F
100
AcDbEntity
  8
0
  6
Continuous
 62
     7
370
    25
100
AcDbLine
 10
101.4720940623
 20
1.3925063991
 30
0.0
 11
98.4312937818
 21
2.2644865674
 31
0.0
  0
LINE
  5
1DE
330
1F
100
AcDbEntity
  8
0
  6
Continuous
 62
     7
370
    25
100
AcDbLine
 10
101.7112366905
 20
2.227597545
 30
0.0
 11
101.4720940623
 21
1.3925063991
 31
0.0
  0
LINE
  5
1DF
330
1F
100
AcDbEntity
  8
0
  6
Continuous
 62
     7
370
    25
100
AcDbLine
 10
102.8163846606
 20
5.2223223949
 30
0.0
 11
103.0758798529
 21
5.0601378997
 31
0.0
  0
LINE
  5
1E0
330
1F
100
AcDbEntity
  8
0
  6
Continuous
 62
     7
370
    25
100
AcDbLine
 10
102.1701907504
 20
4.1887937491
 30
0.0
 11
102.8163846606
 21
5.2223223949
 31
0.0
  0
LINE
  5
1E1
330
1F
100
AcDbEntity
  8
0
  6
Continuous
 62
     7
370
    25
100
AcDbLine
 10
99.739967393
 20
5.7076038453
 30
0.0
 11
102.1701907504
 21
4.1887937491
 31
0.0
  0
LINE
  5
1E2
330
1F
100
AcDbEntity
  8
0
  6
Continuous
 62
     7
370
    25
100
AcDbLine
 10
99.5714227215
 20
5.4372963533
 30
0.0
 11
99.739967393
 21
5.7076038453
 31
0.0
  0
LINE
  5
1E3
330
1F
100
AcDbEntity
  8
0
  6
Continuous
 62
     7
370
    25
100
AcDbLine
 10
102.2611412712
 20
3.7563017619
 30
0.0
 11
99.5714227215
 21
5.4372963533
 31
0.0
  0
LINE
  5
1E4
330
1F
100
AcDbEntity
  8
0
  6
Continuous
 62
     7
370
    25
100
AcDbLine
 10
103.0758798529
 20
5.0601378997
 30
0.0
 11
102.2611412712
 21
3.7563017619
 31
0.0
  0
LINE
  5
1E5
330
1F
100
AcDbEntity
  8
0
  6
Continuous
 62
     7
370
    25
100
AcDbLine
 10
130.1632566966
 20
12.8529967806
 30
0.0
 11
130.3341692501
 21
12.056159445
 31
0.0
  0
LINE
  5
1E6
330
1F
100
AcDbEntity
  8
0
  6
Continuous
 62
     7
370
    25
100
AcDbLine
 10
132.2492953464
 20
12.2010389606
 30
0.0
 11
132.4349222257
 21
12.9978762961
 31
0.0
  0
LINE
  5
1E7
330
1F
100
AcDbEntity
  8
0
  6
Continuous
 62
     7
370
    25
100
AcDbLine
 10
139.3002788634
 20
-18.9842767633
 30
0.0
 11
139.3002788634
 21
-20.7952707078
 31
0.0
  0
LINE
  5
1E8
330
1F
100
AcDbEntity
  8
0
  6
Continuous
 62
     7
370
    25
100
AcDbLine
 10
138.6483210434
 20
-18.9842767633
 30
0.0
 11
139.3002788634
 21
-18.9842767633
 31
0.0
  0
LINE
  5
1E9
330
1F
100
AcDbEntity
  8
0
  6
Continuous
 62
     7
370
    25
100
AcDbLine
 10
138.6483210434
 20
-23.4031019879
 30
0.0
 11
138.6483210434
 21
-18.9842767633
 31
0.0
  0
LINE
  5
1EA
330
1F
100
AcDbEntity
  8
0
  6
Continuous
 62
     7
370
    25
100
AcDbLine
 10
139.3002788634
 20
-23.4031019879
 30
0.0
 11
138.6483210434
 21
-23.4031019879
 31
0.0
  0
LINE
  5
1EB
330
1F
100
AcDbEntity
  8
0
  6
Continuous
 62
     7
370
    25
100
AcDbLine
 10
139.3002788634
 20
-21.5921080434
 30
0.0
 11
139.3002788634
 21
-23.4031019879
 31
0.0
  0
LINE
  5
1EC
330
1F
100
AcDbEntity
  8
0
  6
Continuous
 62
     7
370
    25
100
AcDbLine
 10
144.2986221502
 20
-21.5921080434
 30
0.0
 11
139.3002788634
 21
-21.5921080434
 31
0.0
  0
LINE
  5
1ED
330
1F
100
AcDbEntity
  8
0
  6
Continuous
 62
     7
370
    25
100
AcDbLine
 10
144.2986221502
 20
-20.7952707078
 30
0.0
 11
144.2986221502
 21
-21.5921080434
 31
0.0
  0
LINE
  5
1EE
330
1F
100
AcDbEntity
  8
0
  6
Continuous
 62
     7
370
    25
100
AcDbLine
 10
139.3002788634
 20
-20.7952707078
 30
0.0
 11
144.2986221502
 21
-20.7952707078
 31
0.0
  0
LINE
  5
1EF
330
1F
100
AcDbEntity
  8
0
  6
Continuous
 62
     7
370
    25
100
AcDbLine
 10
143.6466643301
 20
-17.3906020922
 30
0.0
 11
143.6466643301
 21
-14.0583732344
 31
0.0
  0
LINE
  5
1F0
330
1F
100
AcDbEntity
  8
0
  6
Continuous
 62
     7
370
    25
100
AcDbLine
 10
141.6907908701
 20
-17.3906020922
 30
0.0
 11
143.6466643301
 21
-17.3906020922
 31
0.0
  0
LINE
  5
1F1
330
1F
100
AcDbEntity
  8
0
  6
Continuous
 62
     7
370
    25
100
AcDbLine
 10
141.6907908701
 20
-14.4205720232
 30
0.0
 11
141.6907908701
 21
-17.3906020922
 31
0.0
  0
LINE
  5
1F2
330
1F
100
AcDbEntity
  8
0
  6
Continuous
 62
     7
370
    25
100
AcDbLine
 10
141.0388330501
 20
-14.4205720232
 30
0.0
 11
141.6907908701
 21
-14.4205720232
 31
0.0
  0
LINE
  5
1F3
330
1F
100
AcDbEntity
  8
0
  6
Continuous
 62
     7
370
    25
100
AcDbLine
 10
141.0388330501
 20
-17.3906020922
 30
0.0
 11
141.0388330501
 21
-14.4205720232
 31
0.0
  0
LINE
  5
1F4
330
1F
100
AcDbEntity
  8
0
  6
Continuous
 62
     7
370
    25
100
AcDbLine
 10
139.3002788634
 20
-17.3906020922
 30
0.0
 11
141.0388330501
 21
-17.3906020922
 31
0.0
  0
LINE
  5
1F5
330
1F
100
AcDbEntity
  8
0
  6
Continuous
 62
     7
370
    25
100
AcDbLine
 10
139.3002788634
 20
-14.2032527499
 30
0.0
 11
139.3002788634
 21
-17.3906020922
 31
0.0
  0
LINE
  5
1F6
330
1F
100
AcDbEntity
  8
0
  6
Continuous
 62
     7
370
    25
100
AcDbLine
 10
138.6483210434
 20
-14.2032527499
 30
0.0
 11
139.3002788634
 21
-14.2032527499
 31
0.0
  0
LINE
  5
1F7
330
1F
100
AcDbEntity
  8
0
  6
Continuous
 62
     7
370
    25
100
AcDbLine
 10
138.6483210434
 20
-18.1874394278
 30
0.0
 11
138.6483210434
 21
-14.2032527499
 31
0.0
  0
LINE
  5
1F8
330
1F
100
AcDbEntity
  8
0
  6
Continuous
 62
     7
370
    25
100
AcDbLine
 10
144.2986221502
 20
-18.1874394278
 30
0.0
 11
138.6483210434
 21
-18.1874394278
 31
0.0
  0
LINE
  5
1F9
330
1F
100
AcDbEntity
  8
0
  6
Continuous
 62
     7
370
    25
100
AcDbLine
 10
144.2986221502
 20
-14.0583732344
 30
0.0
 11
144.2986221502
 21
-18.1874394278
 31
0.0
  0
LINE
  5
1FA
330
1F
100
AcDbEntity
  8
0
  6
Continuous
 62
     7
370
    25
100
AcDbLine
 10
143.6466643301
 20
-14.0583732344
 30
0.0
 11
144.2986221502
 21
-14.0583732344
 31
0.0
  0
LINE
  5
1FB
330
1F
100
AcDbEntity
  8
0
  6
Continuous
 62
     7
370
    25
100
AcDbLine
 10
143.6466643301
 20
-12.1749395321
 30
0.0
 11
143.6466643301
 21
-9.4946684943
 31
0.0
  0
LINE
  5
1FC
330
1F
100
AcDbEntity
  8
0
  6
Continuous
 62
     7
370
    25
100
AcDbLine
 10
138.6483210434
 20
-12.1749395321
 30
0.0
 11
143.6466643301
 21
-12.1749395321
 31
0.0
  0
LINE
  5
1FD
330
1F
100
AcDbEntity
  8
0
  6
Continuous
 62
     7
370
    25
100
AcDbLine
 10
138.6483210434
 20
-12.9717768677
 30
0.0
 11
138.6483210434
 21
-12.1749395321
 31
0.0
  0
LINE
  5
1FE
330
1F
100
AcDbEntity
  8
0
  6
Continuous
 62
     7
370
    25
100
AcDbLine
 10
144.2986221502
 20
-12.9717768677
 30
0.0
 11
138.6483210434
 21
-12.9717768677
 31
0.0
  0
LINE
  5
1FF
330
1F
100
AcDbEntity
  8
0
  6
Continuous
 62
     7
370
    25
100
AcDbLine
 10
144.2986221502
 20
-9.4946684943
 30
0.0
 11
144.2986221502
 21
-12.9717768677
 31
0.0
  0
LINE
  5
200
330
1F
100
AcDbEntity
  8
0
  6
Continuous
 62
     7
370
    25
100
AcDbLine
 10
143.6466643301
 20
-9.4946684943
 30
0.0
 11
144.2986221502
 21
-9.4946684943
 31
0.0
  0
LINE
  5
201
330
1F
100
AcDbEntity
  8
0
  6
Continuous
 62
     7
370
    25
100
AcDbLine
 10
143.6466643301
 20
-7.8285540653
 30
0.0
 11
143.6466643301
 21
-4.4963252075
 31
0.0
  0
LINE
  5
202
330
1F
100
AcDbEntity
  8
0
  6
Continuous
 62
     7
370
    25
100
AcDbLine
 10
141.6907908701
 20
-7.8285540653
 30
0.0
 11
143.6466643301
 21
-7.8285540653
 31
0.0
  0
LINE
  5
203
330
1F
100
AcDbEntity
  8
0
  6
Continuous
 62
     7
370
    25
100
AcDbLine
 10
141.6907908701
 20
-4.8585239964
 30
0.0
 11
141.6907908701
 21
-7.8285540653
 31
0.0
  0
LINE
  5
204
330
1F
100
AcDbEntity
  8
0
  6
Continuous
 62
     7
370
    25
100
AcDbLine
 10
141.0388330501
 20
-4.8585239964
 30
0.0
 11
141.6907908701
 21
-4.8585239964
 31
0.0
  0
LINE
  5
205
330
1F
100
AcDbEntity
  8
0
  6
Continuous
 62
     7
370
    25
100
AcDbLine
 10
141.0388330501
 20
-7.8285540653
 30
0.0
 11
141.0388330501
 21
-4.8585239964
 31
0.0
  0
LINE
  5
206
330
1F
100
AcDbEntity
  8
0
  6
Continuous
 62
     7
370
    25
100
AcDbLine
 10
139.3002788634
 20
-7.8285540653
 30
0.0
 11
141.0388330501
 21
-7.8285540653
 31
0.0
  0
LINE
  5
207
330
1F
100
AcDbEntity
  8
0
  6
Continuous
 62
     7
370
    25
100
AcDbLine
 10
139.3002788634
 20
-4.6412047231
 30
0.0
 11
139.3002788634
 21
-7.8285540653
 31
0.0
  0
LINE
  5
208
330
1F
100
AcDbEntity
  8
0
  6
Continuous
 62
     7
370
    25
100
AcDbLine
 10
138.6483210434
 20
-4.6412047231
 30
0.0
 11
139.3002788634
 21
-4.6412047231
 31
0.0
  0
LINE
  5
209
330
1F
100
AcDbEntity
  8
0
  6
Continuous
 62
     7
370
    25
100
AcDbLine
 10
138.6483210434
 20
-8.6253914009
 30
0.0
 11
138.6483210434
 21
-4.6412047231
 31
0.0
  0
LINE
  5
20A
330
1F
100
AcDbEntity
  8
0
  6
Continuous
 62
     7
370
    25
100
AcDbLine
 10
144.2986221502
 20
-8.6253914009
 30
0.0
 11
138.6483210434
 21
-8.6253914009
 31
0.0
  0
LINE
  5
20B
330
1F
100
AcDbEntity
  8
0
  6
Continuous
 62
     7
370
    25
100
AcDbLine
 10
144.2986221502
 20
-4.4963252075
 30
0.0
 11
144.2986221502
 21
-8.6253914009
 31
0.0
  0
LINE
  5
20C
330
1F
100
AcDbEntity
  8
0
  6
Continuous
 62
     7
370
    25
100
AcDbLine
 10
143.6466643301
 20
-4.4963252075
 30
0.0
 11
144.2986221502
 21
-4.4963252075
 31
0.0
  0
LINE
  5
20D
330
1F
100
AcDbEntity
  8
0
  6
Continuous
 62
     7
370
    25
100
AcDbLine
 10
140.2408638433
 20
1.4233612485
 30
0.0
 11
140.4242269802
 21
0.6944361859
 31
0.0
  0
LINE
  5
20E
330
1F
100
AcDbEntity
  8
0
  6
Continuous
 62
     7
370
    25
100
AcDbLine
 10
141.401031839
 20
1.5161746882
 30
0.0
 11
143.4915979736
 21
1.5161746882
 31
0.0
  0
LINE
  5
20F
330
1F
100
AcDbEntity
  8
0
  6
Continuous
 62
     7
370
    25
100
AcDbLine
 10
141.401031839
 20
-0.8018975608
 30
0.0
 11
141.401031839
 21
1.5161746882
 31
0.0
  0
LINE
  5
210
330
1F
100
AcDbEntity
  8
0
  6
Continuous
 62
     7
370
    25
100
AcDbLine
 10
142.052989659
 20
-0.8018975608
 30
0.0
 11
141.401031839
 21
-0.8018975608
 31
0.0
  0
LINE
  5
211
330
1F
100
AcDbEntity
  8
0
  6
Continuous
 62
     7
370
    25
100
AcDbLine
 10
142.052989659
 20
0.7193373526
 30
0.0
 11
142.052989659
 21
-0.8018975608
 31
0.0
  0
LINE
  5
212
330
1F
100
AcDbEntity
  8
0
  6
Continuous
 62
     7
370
    25
100
AcDbLine
 10
143.1237398287
 20
0.7193373526
 30
0.0
 11
142.052989659
 21
0.7193373526
 31
0.0
  0
LINE
  5
213
330
1F
100
AcDbEntity
  8
0
  6
Continuous
 62
     7
370
    25
100
AcDbLine
 10
131.9255801788
 20
-1.6270316767
 30
0.0
 11
131.9255801788
 21
-3.011310173
 31
0.0
  0
LINE
  5
214
330
1F
100
AcDbEntity
  8
0
  6
Continuous
 62
     7
370
    25
100
AcDbLine
 10
128.593351321
 20
-3.8081475086
 30
0.0
 11
128.593351321
 21
-1.7322956998
 31
0.0
  0
LINE
  5
215
330
1F
100
AcDbEntity
  8
0
  6
Continuous
 62
     7
370
    25
100
AcDbLine
 10
134.2436524278
 20
-3.8081475086
 30
0.0
 11
128.593351321
 21
-3.8081475086
 31
0.0
  0
LINE
  5
216
330
1F
100
AcDbEntity
  8
0
  6
Continuous
 62
     7
370
    25
100
AcDbLine
 10
134.2436524278
 20
-3.011310173
 30
0.0
 11
134.2436524278
 21
-3.8081475086
 31
0.0
  0
LINE
  5
217
330
1F
100
AcDbEntity
  8
0
  6
Continuous
 62
     7
370
    25
100
AcDbLine
 10
131.9255801788
 20
-3.011310173
 30
0.0
 11
134.2436524278
 21
-3.011310173
 31
0.0
  0
LINE
  5
218
330
1F
100
AcDbEntity
  8
0
  6
Continuous
 62
     7
370
    25
100
AcDbLine
 10
142.5600679635
 20
11.4494764736
 30
0.0
 11
142.5600679635
 21
9.0408545275
 31
0.0
  0
LINE
  5
219
330
1F
100
AcDbEntity
  8
0
  6
Continuous
 62
     7
370
    25
100
AcDbLine
 10
144.2986221502
 20
12.0923793239
 30
0.0
 11
142.5600679635
 21
11.4494764736
 31
0.0
  0
LINE
  5
21A
330
1F
100
AcDbEntity
  8
0
  6
Continuous
 62
     7
370
    25
100
AcDbLine
 10
144.2986221502
 20
12.9378871217
 30
0.0
 11
144.2986221502
 21
12.0923793239
 31
0.0
  0
LINE
  5
21B
330
1F
100
AcDbEntity
  8
0
  6
Continuous
 62
     7
370
    25
100
AcDbLine
 10
138.6483210434
 20
10.694518373
 30
0.0
 11
144.2986221502
 21
12.9378871217
 31
0.0
  0
LINE
  5
21C
330
1F
100
AcDbEntity
  8
0
  6
Continuous
 62
     7
370
    25
100
AcDbLine
 10
138.6483210434
 20
9.7958126281
 30
0.0
 11
138.6483210434
 21
10.694518373
 31
0.0
  0
LINE
  5
21D
330
1F
100
AcDbEntity
  8
0
  6
Continuous
 62
     7
370
    25
100
AcDbLine
 10
144.2986221502
 20
7.5524438793
 30
0.0
 11
138.6483210434
 21
9.7958126281
 31
0.0
  0
LINE
  5
21E
330
1F
100
AcDbEntity
  8
0
  6
Continuous
 62
     7
370
    25
100
AcDbLine
 10
144.2986221502
 20
8.3979516772
 30
0.0
 11
144.2986221502
 21
7.5524438793
 31
0.0
  0
LINE
  5
21F
330
1F
100
AcDbEntity
  8
0
  6
Continuous
 62
     7
370
    25
100
AcDbLine
 10
142.5600679635
 20
9.0408545275
 30
0.0
 11
144.2986221502
 21
8.3979516772
 31
0.0
  0
LINE
  5
220
330
1F
100
AcDbEntity
  8
0
  6
Continuous
 62
     7
370
    25
100
AcDbLine
 10
162.5414213562
 20
-33.77
 30
0.0
 11
165.6
 21
-30.7114213562
 31
0.0
  0
LINE
  5
221
330
1F
100
AcDbEntity
  8
0
  6
Continuous
 62
     7
370
    25
100
AcDbLine
 10
123.424
 20
-33.77
 30
0.0
 11
162.5414213562
 21
-33.77
 31
0.0
  0
LINE
  5
222
330
1F
100
AcDbEntity
  8
0
  6
Continuous
 62
     7
370
    25
100
AcDbLine
 10
123.424
 20
-36.8874213562
 30
0.0
 11
123.424
 21
-33.77
 31
0.0
  0
LINE
  5
223
330
1F
100
AcDbEntity
  8
0
  6
Continuous
 62
     7
370
    25
100
AcDbLine
 10
120.1894213562
 20
-40.122
 30
0.0
 11
123.424
 21
-36.8874213562
 31
0.0
  0
LINE
  5
224
330
1F
100
AcDbEntity
  8
0
  6
Continuous
 62
     7
370
    25
100
AcDbLine
 10
15.0
 20
-40.122
 30
0.0
 11
120.1894213562
 21
-40.122
 31
0.0
  0
LINE
  5
225
330
1F
100
AcDbEntity
  8
0
  6
Continuous
 62
     7
370
    25
100
AcDbLine
 10
15.0
 20
-40.122
 30
0.0
 11
15.0
 21
-36.022
 31
0.0
  0
LINE
  5
226
330
1F
100
AcDbEntity
  8
0
  6
Continuous
 62
     7
370
    25
100
AcDbLine
 10
15.0
 20
-36.022
 30
0.0
 11
12.0
 21
-33.022
 31
0.0
  0
LINE
  5
227
330
1F
100
AcDbEntity
  8
0
  6
Continuous
 62
     7
370
    25
100
AcDbLine
 10
12.0
 20
-33.022
 30
0.0
 11
-0.1
 21
-33.022
 31
0.0
  0
LINE
  5
228
330
1F
100
AcDbEntity
  8
0
  6
Continuous
 62
     7
370
    25
100
AcDbLine
 10
-0.1
 20
33.022
 30
0.0
 11
-0.1
 21
-33.022
 31
0.0
  0
LINE
  5
229
330
1F
100
AcDbEntity
  8
0
  6
Continuous
 62
     7
370
    25
100
AcDbLine
 10
-0.1
 20
33.022
 30
0.0
 11
12.0
 21
33.022
 31
0.0
  0
LINE
  5
22A
330
1F
100
AcDbEntity
  8
0
  6
Continuous
 62
     7
370
    25
100
AcDbLine
 10
12.0
 20
33.022
 30
0.0
 11
15.0
 21
36.022
 31
0.0
  0
LINE
  5
22B
330
1F
100
AcDbEntity
  8
0
  6
Continuous
 62
     7
370
    25
100
AcDbLine
 10
15.0
 20
36.022
 30
0.0
 11
15.0
 21
40.122
 31
0.0
  0
LINE
  5
22C
330
1F
100
AcDbEntity
  8
0
  6
Continuous
 62
     7
370
    25
100
AcDbLine
 10
120.1894213562
 20
40.122
 30
0.0
 11
15.0
 21
40.122
 31
0.0
  0
LINE
  5
22D
330
1F
100
AcDbEntity
  8
0
  6
Continuous
 62
     7
370
    25
100
AcDbLine
 10
123.424
 20
36.8874213562
 30
0.0
 11
120.1894213562
 21
40.122
 31
0.0
  0
LINE
  5
22E
330
1F
100
AcDbEntity
  8
0
  6
Continuous
 62
     7
370
    25
100
AcDbLine
 10
123.424
 20
33.77
 30
0.0
 11
123.424
 21
36.8874213562
 31
0.0
  0
LINE
  5
22F
330
1F
100
AcDbEntity
  8
0
  6
Continuous
 62
     7
370
    25
100
AcDbLine
 10
162.5414213562
 20
33.77
 30
0.0
 11
123.424
 21
33.77
 31
0.0
  0
LINE
  5
230
330
1F
100
AcDbEntity
  8
0
  6
Continuous
 62
     7
370
    25
100
AcDbLine
 10
165.6
 20
30.7114213562
 30
0.0
 11
162.5414213562
 21
33.77
 31
0.0
  0
LINE
  5
231
330
1F
100
AcDbEntity
  8
0
  6
Continuous
 62
     7
370
    25
100
AcDbLine
 10
165.6
 20
25.67
 30
0.0
 11
165.6
 21
30.7114213562
 31
0.0
  0
LINE
  5
232
330
1F
100
AcDbEntity
  8
0
  6
Continuous
 62
     7
370
    25
100
AcDbLine
 10
165.6
 20
25.67
 30
0.0
 11
161.4
 21
25.67
 31
0.0
  0
LINE
  5
233
330
1F
100
AcDbEntity
  8
0
  6
Continuous
 62
     7
370
    25
100
AcDbLine
 10
161.4
 20
25.67
 30
0.0
 11
158.4
 21
22.67
 31
0.0
  0
LINE
  5
234
330
1F
100
AcDbEntity
  8
0
  6
Continuous
 62
     7
370
    25
100
AcDbLine
 10
158.4
 20
22.67
 30
0.0
 11
158.4
 21
18.67
 31
0.0
  0
LINE
  5
235
330
1F
100
AcDbEntity
  8
0
  6
Continuous
 62
     7
370
    25
100
AcDbLine
 10
158.4
 20
18.67
 30
0.0
 11
161.4
 21
15.67
 31
0.0
  0
LINE
  5
236
330
1F
100
AcDbEntity
  8
0
  6
Continuous
 62
     7
370
    25
100
AcDbLine
 10
161.4
 20
15.67
 30
0.0
 11
165.6
 21
15.67
 31
0.0
  0
LINE
  5
237
330
1F
100
AcDbEntity
  8
0
  6
Continuous
 62
     7
370
    25
100
AcDbLine
 10
165.6
 20
-15.67
 30
0.0
 11
165.6
 21
15.67
 31
0.0
  0
LINE
  5
238
330
1F
100
AcDbEntity
  8
0
  6
Continuous
 62
     7
370
    25
100
AcDbLine
 10
165.6
 20
-15.67
 30
0.0
 11
161.4
 21
-15.67
 31
0.0
  0
LINE
  5
239
330
1F
100
AcDbEntity
  8
0
  6
Continuous
 62
     7
370
    25
100
AcDbLine
 10
161.4
 20
-15.67
 30
0.0
 11
158.4
 21
-18.67
 31
0.0
  0
LINE
  5
23A
330
1F
100
AcDbEntity
  8
0
  6
Continuous
 62
     7
370
    25
100
AcDbLine
 10
158.4
 20
-18.67
 30
0.0
 11
158.4
 21
-22.67
 31
0.0
  0
LINE
  5
23B
330
1F
100
AcDbEntity
  8
0
  6
Continuous
 62
     7
370
    25
100
AcDbLine
 10
158.4
 20
-22.67
 30
0.0
 11
161.4
 21
-25.67
 31
0.0
  0
LINE
  5
23C
330
1F
100
AcDbEntity
  8
0
  6
Continuous
 62
     7
370
    25
100
AcDbLine
 10
161.4
 20
-25.67
 30
0.0
 11
165.6
 21
-25.67
 31
0.0
  0
LINE
  5
23D
330
1F
100
AcDbEntity
  8
0
  6
Continuous
 62
     7
370
    25
100
AcDbLine
 10
165.6
 20
-30.7114213562
 30
0.0
 11
165.6
 21
-25.67
 31
0.0
  0
LINE
  5
23E
330
1F
100
AcDbEntity
  8
0
  6
Continuous
 62
     7
370
    25
100
AcDbLine
 10
98.814176394
 20
2.4762804376
 30
0.0
 11
99.7879193828
 21
2.1977047164
 31
0.0
  0
LINE
  5
23F
330
1F
100
AcDbEntity
  8
0
  6
Continuous
 62
     7
370
    25
100
AcDbLine
 10
99.7879193828
 20
2.1977047164
 30
0.0
 11
99.8375287578
 21
2.3713375289
 31
0.0
  0
LINE
  5
240
330
1F
100
AcDbEntity
  8
0
  6
Continuous
 62
     7
370
    25
100
AcDbLine
 10
98.9146671793
 20
2.8273621684
 30
0.0
 11
98.814176394
 21
2.4762804376
 31
0.0
  0
LINE
  5
241
330
1F
100
AcDbEntity
  8
0
  6
Continuous
 62
     7
370
    25
100
AcDbLine
 10
99.0056437801
 20
-0.7428762401
 30
0.0
 11
100.1867285157
 21
-1.2078051264
 31
0.0
  0
LINE
  5
242
330
1F
100
AcDbEntity
  8
0
  6
Continuous
 62
     7
370
    25
100
AcDbLine
 10
100.1867285157
 20
-1.2078051264
 30
0.0
 11
100.1129504708
 21
-0.1278471937
 31
0.0
  0
LINE
  5
243
330
1F
100
AcDbEntity
  8
0
  6
Continuous
 62
     7
370
    25
100
AcDbLine
 10
100.1129504708
 20
-0.1278471937
 30
0.0
 11
99.0056437801
 21
-0.7428762401
 31
0.0
  0
LINE
  5
244
330
1F
100
AcDbEntity
  8
0
  6
Continuous
 62
     7
370
    25
100
AcDbLine
 10
101.2596641745
 20
1.7753890113
 30
0.0
 11
101.3671511536
 21
2.1512754296
 31
0.0
  0
LINE
  5
245
330
1F
100
AcDbEntity
  8
0
  6
Continuous
 62
     7
370
    25
100
AcDbLine
 10
100.093843862
 20
2.1099342838
 30
0.0
 11
101.2596641745
 21
1.7753890113
 31
0.0
  0
LINE
  5
246
330
1F
100
AcDbEntity
  8
0
  6
Continuous
 62
     7
370
    25
100
AcDbLine
 10
100.1428172193
 20
2.2816590434
 30
0.0
 11
100.093843862
 21
2.1099342838
 31
0.0
  0
LINE
  5
247
330
1F
100
AcDbEntity
  8
0
  6
Continuous
 62
     7
370
    25
100
AcDbLine
 10
131.2736223588
 20
-3.011310173
 30
0.0
 11
131.2736223588
 21
-1.6485372298
 31
0.0
  0
LINE
  5
248
330
1F
100
AcDbEntity
  8
0
  6
Continuous
 62
     7
370
    25
100
AcDbLine
 10
129.245309141
 20
-1.6621196844
 30
0.0
 11
129.245309141
 21
-3.011310173
 31
0.0
  0
LINE
  5
249
330
1F
100
AcDbEntity
  8
0
  6
Continuous
 62
     7
370
    25
100
AcDbLine
 10
129.245309141
 20
-3.011310173
 30
0.0
 11
131.2736223588
 21
-3.011310173
 31
0.0
  0
LINE
  5
24A
330
1F
100
AcDbEntity
  8
0
  6
Continuous
 62
     7
370
    25
100
AcDbLine
 10
131.8531404211
 20
-6.1398022121
 30
0.0
 11
130.3681253866
 21
-6.6887597515
 31
0.0
  0
LINE
  5
24B
330
1F
100
AcDbEntity
  8
0
  6
Continuous
 62
     7
370
    25
100
AcDbLine
 10
131.8531404211
 20
-8.068510763
 30
0.0
 11
131.8531404211
 21
-6.1398022121
 31
0.0
  0
LINE
  5
24C
330
1F
100
AcDbEntity
  8
0
  6
Continuous
 62
     7
370
    25
100
AcDbLine
 10
130.2888944015
 20
-7.490124572
 30
0.0
 11
131.8531404211
 21
-8.068510763
 31
0.0
  0
LINE
  5
24D
330
1F
100
AcDbEntity
  8
0
  6
Continuous
 62
     7
370
    25
100
AcDbLine
 10
139.3002788634
 20
5.1562725166
 30
0.0
 11
139.3002788634
 21
3.4720481482
 31
0.0
  0
LINE
  5
24E
330
1F
100
AcDbEntity
  8
0
  6
Continuous
 62
     7
370
    25
100
AcDbLine
 10
139.3002788634
 20
3.4720481482
 30
0.0
 11
141.1112728079
 21
3.4720481482
 31
0.0
  0
LINE
  5
24F
330
1F
100
AcDbEntity
  8
0
  6
Continuous
 62
     7
370
    25
100
AcDbLine
 10
141.1112728079
 20
3.4720481482
 30
0.0
 11
141.1112728079
 21
4.985359963
 31
0.0
  0
LINE
  5
250
330
1F
100
AcDbEntity
  8
0
  6
Continuous
 62
     7
370
    25
100
AcDbLine
 10
141.9081101434
 20
11.209519776
 30
0.0
 11
140.423095109
 21
10.6605622366
 31
0.0
  0
LINE
  5
251
330
1F
100
AcDbEntity
  8
0
  6
Continuous
 62
     7
370
    25
100
AcDbLine
 10
140.3438641239
 20
9.8591974161
 30
0.0
 11
141.9081101434
 21
9.2808112251
 31
0.0
  0
LINE
  5
252
330
1F
100
AcDbEntity
  8
0
  6
Continuous
 62
     7
370
    25
100
AcDbLine
 10
141.9081101434
 20
9.2808112251
 30
0.0
 11
141.9081101434
 21
11.209519776
 31
0.0
  0
LINE
  5
253
330
1F
100
AcDbEntity
  8
0
  6
Continuous
 62
     7
370
    25
100
AcDbLine
 10
139.3002788634
 20
15.6872023037
 30
0.0
 11
139.3002788634
 21
14.3380118151
 31
0.0
  0
LINE
  5
254
330
1F
100
AcDbEntity
  8
0
  6
Continuous
 62
     7
370
    25
100
AcDbLine
 10
139.3002788634
 20
14.3380118151
 30
0.0
 11
141.3285920812
 21
14.3380118151
 31
0.0
  0
LINE
  5
255
330
1F
100
AcDbEntity
  8
0
  6
Continuous
 62
     7
370
    25
100
AcDbLine
 10
141.3285920812
 20
14.3380118151
 30
0.0
 11
141.3285920812
 21
15.7007847583
 31
0.0
  0
MTEXT
  5
257
330
1F
100
AcDbEntity
  8
0
  6
Continuous
 62
     7
100
AcDbMText
 10
-0.1
 20
-41.1415663917
 30
0.0
 40
4.83362
 41
0.0
 71
     1
 72
     1
  1
SOLIDWORKS Educational Product.
  7
SLDTEXTSTYLE0
 73
     1
 44
1.0
  0
MTEXT
  5
258
330
1F
100
AcDbEntity
  8
0
  6
Continuous
 62
     7
100
AcDbMText
 10
-0.1
 20
-48.3919963917
 30
0.0
 40
4.83362
 41
0.0
 71
     1
 72
     1
  1
For Instructional Use Only.
  7
SLDTEXTSTYLE0
 73
     1
 44
1.0
  0
ENDSEC
  0
SECTION
  2
OBJECTS
  0
DICTIONARY
  5
C
330
0
100
AcDbDictionary
281
     1
  3
ACAD_GROUP
350
D
  3
ACAD_LAYOUT
350
1A
  3
ACAD_MLINESTYLE
350
17
  3
ACAD_PLOTSETTINGS
350
19
  3
ACAD_PLOTSTYLENAME
350
E
  3
ACAD_SCALELIST
350
47
  3
DWGPROPS
350
259
  0
DICTIONARY
  5
D
102
{ACAD_REACTORS
330
C
102
}
330
C
100
AcDbDictionary
281
     1
  0
DICTIONARY
  5
1A
102
{ACAD_REACTORS
330
C
102
}
330
C
100
AcDbDictionary
281
     1
  3
Layout1
350
1E
  3
Layout2
350
26
  3
Model
350
22
  0
DICTIONARY
  5
17
102
{ACAD_REACTORS
330
C
102
}
330
C
100
AcDbDictionary
281
     1
  3
Standard
350
18
  0
DICTIONARY
  5
19
102
{ACAD_REACTORS
330
C
102
}
330
C
100
AcDbDictionary
281
     1
  0
ACDBDICTIONARYWDFLT
  5
E
102
{ACAD_REACTORS
330
C
102
}
330
C
100
AcDbDictionary
281
     1
  3
Normal
350
F
100
AcDbDictionaryWithDefault
340
F
  0
DICTIONARY
  5
47
102
{ACAD_REACTORS
330
C
102
}
330
C
100
AcDbDictionary
281
     1
  3
A0
350
48
  3
A1
350
49
  3
A2
350
4A
  3
A3
350
4B
  3
A4
350
4C
  3
A5
350
4D
  3
A6
350
4E
  3
A7
350
4F
  3
A8
350
50
  3
A9
350
51
  3
B0
350
52
  3
B1
350
53
  3
B2
350
54
  3
B3
350
55
  3
B4
350
56
  3
B5
350
57
  3
B6
350
58
  0
XRECORD
  5
259
102
{ACAD_REACTORS
330
C
102
}
330
C
100
AcDbXrecord
280
     1
  1
DWGPROPS COOKIE
  2

  3

  4

  6

  7

  8
tymek
  9

300
=
301
=
302
=
303
=
304
=
305
=
306
=
307
=
308
=
309
=
 40
0.0
 41
2460589.594590035
 42
2460589.594627257
  1

 90
        0
  0
LAYOUT
  5
1E
102
{ACAD_REACTORS
330
1A
102
}
330
1A
100
AcDbPlotSettings
  1

  2
none_device
  4

  6

 40
0.0
 41
0.0
 42
0.0
 43
0.0
 44
0.0
 45
0.0
 46
0.0
 47
0.0
 48
0.0
 49
0.0
140
0.0
141
0.0
142
1.0
143
1.0
 70
   688
 72
     1
 73
     0
 74
     5
  7

 75
    16
147
1.0
148
0.0
149
0.0
100
AcDbLayout
  1
Layout1
 70
     1
 71
     1
 10
0.0
 20
0.0
 11
420.0
 21
297.0
 12
0.0
 22
0.0
 32
0.0
 14
1.0000000000E+20
 24
1.0000000000E+20
 34
1.0000000000E+20
 15
-1.0000000000E+20
 25
-1.0000000000E+20
 35
-1.0000000000E+20
146
0.0
 13
0.0
 23
0.0
 33
0.0
 16
1.0
 26
0.0
 36
0.0
 17
0.0
 27
1.0
 37
0.0
 76
     0
330
1B
  0
LAYOUT
  5
26
102
{ACAD_REACTORS
330
1A
102
}
330
1A
100
AcDbPlotSettings
  1

  2
none_device
  4

  6

 40
0.0
 41
0.0
 42
0.0
 43
0.0
 44
0.0
 45
0.0
 46
0.0
 47
0.0
 48
0.0
 49
0.0
140
0.0
141
0.0
142
1.0
143
1.0
 70
   688
 72
     1
 73
     0
 74
     5
  7

 75
    16
147
1.0
148
0.0
149
0.0
100
AcDbLayout
  1
Layout2
 70
     1
 71
     2
 10
0.0
 20
0.0
 11
0.0
 21
0.0
 12
0.0
 22
0.0
 32
0.0
 14
0.0
 24
0.0
 34
0.0
 15
0.0
 25
0.0
 35
0.0
146
0.0
 13
0.0
 23
0.0
 33
0.0
 16
1.0
 26
0.0
 36
0.0
 17
0.0
 27
1.0
 37
0.0
 76
     0
330
23
  0
LAYOUT
  5
22
102
{ACAD_REACTORS
330
1A
102
}
330
1A
100
AcDbPlotSettings
  1

  2
none_device
  4
ANSI_A_(11.00_x_8.50_Inches)
  6

 40
6.35
 41
19.05
 42
6.35000508
 43
19.05000254
 44
279.4
 45
215.9
 46
-4.7860707355
 47
88.89999873
 48
0.0
 49
0.0
140
0.0
141
0.0
142
0.0657211829
143
1.0
 70
  1696
 72
     0
 73
     0
 74
     0
  7

 75
     0
147
0.0179189148
148
-1300.4909072572
149
0.0
100
AcDbLayout
  1
Model
 70
     1
 71
     0
 10
0.0
 20
0.0
 11
420.0
 21
297.0
 12
0.0
 22
0.0
 32
0.0
 14
-0.1
 24
-40.122
 34
0.0
 15
165.6
 25
40.122
 35
0.0
146
0.0
 13
0.0
 23
0.0
 33
0.0
 16
1.0
 26
0.0
 36
0.0
 17
0.0
 27
1.0
 37
0.0
 76
     0
330
1F
331
29
  0
MLINESTYLE
  5
18
102
{ACAD_REACTORS
330
17
102
}
330
17
100
AcDbMlineStyle
  2
Standard
 70
     0
  3

 62
   256
 51
90.0
 52
90.0
 71
     2
 49
0.5
 62
   256
  6
BYLAYER
 49
-0.5
 62
   256
  6
BYLAYER
  0
ACDBPLACEHOLDER
  5
F
102
{ACAD_REACTORS
330
E
102
}
330
E
  0
SCALE
  5
48
102
{ACAD_REACTORS
330
47
102
}
330
47
100
AcDbScale
 70
     0
300
1:1
140
1.0
141
1.0
290
     1
  0
SCALE
  5
49
102
{ACAD_REACTORS
330
47
102
}
330
47
100
AcDbScale
 70
     0
300
1:2
140
1.0
141
2.0
290
     0
  0
SCALE
  5
4A
102
{ACAD_REACTORS
330
47
102
}
330
47
100
AcDbScale
 70
     0
300
1:4
140
1.0
141
4.0
290
     0
  0
SCALE
  5
4B
102
{ACAD_REACTORS
330
47
102
}
330
47
100
AcDbScale
 70
     0
300
1:5
140
1.0
141
5.0
290
     0
  0
SCALE
  5
4C
102
{ACAD_REACTORS
330
47
102
}
330
47
100
AcDbScale
 70
     0
300
1:8
140
1.0
141
8.0
290
     0
  0
SCALE
  5
4D
102
{ACAD_REACTORS
330
47
102
}
330
47
100
AcDbScale
 70
     0
300
1:10
140
1.0
141
10.0
290
     0
  0
SCALE
  5
4E
102
{ACAD_REACTORS
330
47
102
}
330
47
100
AcDbScale
 70
     0
300
1:16
140
1.0
141
16.0
290
     0
  0
SCALE
  5
4F
102
{ACAD_REACTORS
330
47
102
}
330
47
100
AcDbScale
 70
     0
300
1:20
140
1.0
141
20.0
290
     0
  0
SCALE
  5
50
102
{ACAD_REACTORS
330
47
102
}
330
47
100
AcDbScale
 70
     0
300
1:30
140
1.0
141
30.0
290
     0
  0
SCALE
  5
51
102
{ACAD_REACTORS
330
47
102
}
330
47
100
AcDbScale
 70
     0
300
1:40
140
1.0
141
40.0
290
     0
  0
SCALE
  5
52
102
{ACAD_REACTORS
330
47
102
}
330
47
100
AcDbScale
 70
     0
300
1:50
140
1.0
141
50.0
290
     0
  0
SCALE
  5
53
102
{ACAD_REACTORS
330
47
102
}
330
47
100
AcDbScale
 70
     0
300
1:100
140
1.0
141
100.0
290
     0
  0
SCALE
  5
54
102
{ACAD_REACTORS
330
47
102
}
330
47
100
AcDbScale
 70
     0
300
2:1
140
2.0
141
1.0
290
     0
  0
SCALE
  5
55
102
{ACAD_REACTORS
330
47
102
}
330
47
100
AcDbScale
 70
     0
300
4:1
140
4.0
141
1.0
290
     0
  0
SCALE
  5
56
102
{ACAD_REACTORS
330
47
102
}
330
47
100
AcDbScale
 70
     0
300
8:1
140
8.0
141
1.0
290
     0
  0
SCALE
  5
57
102
{ACAD_REACTORS
330
47
102
}
330
47
100
AcDbScale
 70
     0
300
10:1
140
10.0
141
1.0
290
     0
  0
SCALE
  5
58
102
{ACAD_REACTORS
330
47
102
}
330
47
100
AcDbScale
 70
     0
300
100:1
140
100.0
141
1.0
290
     0
  0
ENDSEC
  0
EOF
